<?xml version="1.0" standalone="no"?>
<!DOCTYPE svg PUBLIC "-//W3C//DTD SVG 1.1//EN" "http://www.w3.org/Graphics/SVG/1.1/DTD/svg11.dtd" >
<svg xmlns="http://www.w3.org/2000/svg" xmlns:xlink="http://www.w3.org/1999/xlink" version="1.1">
<metadata>
Created by FontForge 20170731 at Sun Jan 24 18:16:33 2021
 By Aleksey,,,
</metadata>
<defs>
<font id="PartizenoRegular" horiz-adv-x="549" >
  <font-face 
    font-family="Partizeno"
    font-weight="400"
    font-stretch="normal"
    units-per-em="1000"
    panose-1="0 0 0 0 0 0 0 0 0 0"
    ascent="800"
    descent="-200"
    x-height="489"
    cap-height="700"
    bbox="-203 -266 1054.91 885"
    underline-thickness="50"
    underline-position="-200"
    unicode-range="U+000A-FB01"
  />
<missing-glyph horiz-adv-x="527" 
d="M50 700h427v-700h-427v700zM78 680l185 -309l186 309h-371zM251 350l-180 300v-601zM264 329l-185 -308h370zM276 350l181 -303v605z" />
    <glyph glyph-name="gi.liga" unicode="gi" horiz-adv-x="634" 
d="M306 49q79 0 114 -35.5t35 -81.5q0 -60 -59.5 -106.5t-155.5 -46.5q-78 0 -120 30.5t-42 81.5q0 79 90 104q-143 -5 -143 83q0 35 30 57q14 10 32 16q-57 60 -57 144q0 87 61.5 148.5t148.5 61.5h12q-48 54 -48 126q0 78 55.5 134t134 56t134 -56t55.5 -134q0 -12 -1 -25
q-1 0 -1 -0.5v-1.5q-2 -18 -18 -29q-11 -8 -24 -8q-9 0 -17 3.5t-13.5 9.5t-9 13.5t-3.5 16.5q0 18 12.5 30.5t30.5 12.5q20 0 33 -16q-2 72 -54 122.5t-125 50.5q-74 0 -126.5 -52.5t-52.5 -126.5q0 -75 54 -128q36 -5 68 -22l17 -9q13 -9 25 -19l12 -12q59 -61 59 -146
q0 -87 -61.5 -149t-147.5 -62q-57 0 -121 40l-8 5q-7 5 -15 12q-11 -3 -18 -9q-19 -14 -19 -31q0 -52 80 -52h167zM72 334q0 -84 62.5 -151t141.5 -67q58 0 94.5 39t36.5 101q0 84 -62.5 151t-140.5 67q-58 0 -95 -39t-37 -101zM373 -171q43 39 43 87q0 79 -127 79h-91
q-109 -25 -109 -103q0 -47 39 -74.5t115 -27.5q87 0 130 39zM619 10q3 -3 6 -5h-167q2 2 5 4q44 35 47 93v65v161v52q0 13 -2 23q-6 33 -26 60q-3 5 -7 9q-7 8 -15 13q-2 3 -5 5h167q-3 -2 -5 -4q-44 -35 -47 -93v-279q0 -13 2 -22q8 -51 47 -82z" />
    <glyph glyph-name="gl.liga" unicode="gl" horiz-adv-x="794" 
d="M783 85h11q-30 -92 -137 -92q-147 0 -147 155v231v133v111q0 12 -2 22q-8 51 -48 82q-2 2 -5 4h79q-24 39 -64.5 62t-87.5 23q-74 0 -126.5 -52.5t-52.5 -126.5q0 -80 59 -133q40 -5 74 -23q12 -6 17 -9q9 -6 18 -14q8 -6 13 -11q65 -62 65 -152q0 -87 -61.5 -149
t-147.5 -62q-57 0 -121 40l-8 5q-7 5 -15 12q-11 -3 -18 -9q-19 -14 -19 -31q0 -52 80 -52h167q79 0 114 -35.5t35 -81.5q0 -60 -59.5 -106.5t-155.5 -46.5q-78 0 -120 30.5t-42 81.5q0 79 90 104q-143 -5 -143 83q0 35 30 57q14 10 32 16q-57 60 -57 144q0 87 61.5 148.5
t148.5 61.5h3h3q-54 55 -54 132q0 78 55.5 134t134.5 56q52 0 95.5 -26t68.5 -70q23 -39 25 -84q1 -5 1 -10q0 -12 -2 -24v-234v-233q0 -68 18 -105t69 -37q98 0 126 81zM289 -5h-91q-109 -25 -109 -103q0 -47 39 -74.5t115 -27.5q87 0 130 39t43 87q0 79 -127 79zM407 256
q0 84 -62.5 151t-140.5 67q-58 0 -95 -39t-37 -101q0 -84 62.5 -151t141.5 -67q58 0 94.5 39t36.5 101z" />
    <glyph glyph-name="ti.liga" unicode="ti" horiz-adv-x="497" 
d="M483 9q3 -2 5 -4h-167q3 2 5 4q44 34 47 93v64v162v52q0 13 -2 23q-7 45 -40 76h-218v-333q0 -68 18 -105t69 -37q98 0 126 81h11q-30 -92 -137 -92q-147 0 -147 155v331h-41v10h41v19q0 55 -39 90q-3 2 -5.5 4.5t-5.5 4.5h110l-1 -118h373q-2 -1 -5 -3q-44 -35 -47 -93
v-279q0 -13 2 -23q9 -51 48 -82zM402 567q-11 0 -21 5.5t-16 15.5t-6 22q0 18 12.5 30.5t30.5 12.5t30.5 -12.5t12.5 -30.5t-12.5 -30.5t-30.5 -12.5z" />
    <glyph glyph-name="tt.liga" unicode="tt" horiz-adv-x="602" 
d="M589 85h11q-30 -92 -137 -92q-101 0 -133 74q-34 -74 -130 -74q-147 0 -147 155v331h-41v10h41v19q0 55 -39 90q-3 2 -5.5 4.5t-5.5 4.5h110l-1 -118h204v19q0 55 -39 90q-3 2 -5.5 4.5t-5.5 4.5h110l-1 -118h101v-10h-100v-333q0 -68 18 -105t69 -37q98 0 126 81zM200 4
q96 0 125 77q-9 29 -9 67v331h-203v-333q0 -68 18 -105t69 -37z" />
    <glyph glyph-name="ee.liga" unicode="ee" horiz-adv-x="1078" 
d="M906 498q50 -10 83.5 -33.5t46 -50t16.5 -51t2.5 -41t-2.5 -16.5h-38q8 -14 15.5 -34.5t13 -50t-1 -64t-25.5 -64.5q-10 -15 -23.5 -30t-42 -33t-61.5 -23h-3.5t-8.5 -0.5t-8 -1.5q-56 -5 -122.5 12t-104.5 52q-3 4 -6 7q-42 41 -61 96t-12 113q2 10 4 21h-96
q8 -14 15 -34.5t12.5 -50t-0.5 -64t-26 -64.5q-10 -15 -23 -30t-42 -33t-61 -23h-4t-8 -0.5t-8 -1.5q-57 -5 -123 12t-104 52q-3 4 -7 7q-41 41 -60 96t-12 113q8 70 52 124q34 43 100 69t127 26h1q40 0 63 -6q36 -7 63.5 -21t42.5 -31t25.5 -36t12.5 -36.5t4 -32.5t0 -24
h58q14 51 46 92q35 43 100.5 69t127.5 26q40 0 63 -6zM162 439q-48 -47 -60 -122h365q-2 35 -11 63t-21 45.5t-29 30.5t-30.5 19t-30.5 9t-24.5 3.5t-16.5 0.5h-3q-39 2 -77 -11t-62 -38zM463 99q16 25 21 54t2.5 51.5t-10.5 46t-14 35t-12 20.5h-350q-2 -24 -1 -48
q5 -112 79 -185q48 -48 109 -55q18 -2 42 0q52 5 90 34q26 19 44 47zM705 439q-47 -47 -60 -122h366q-2 35 -11 63t-21 45.5t-29 30.5t-31 19t-31 9t-24.5 3.5t-16.5 0.5h-3q-39 2 -76.5 -11t-62.5 -38zM1006 99q20 31 24 66t-5 65t-16 47t-15 29h-350q-3 -24 -2 -48
q6 -112 80 -185q23 -24 51 -38t58 -17q17 -2 41 0q53 5 91 34q25 19 43 47z" />
    <glyph glyph-name="fh.liga" unicode="fh" horiz-adv-x="771" 
d="M605 9q43 34 46 93v240q0 70 -27 110.5t-102 40.5q-68 0 -106 -41t-38 -121v-164v-52q0 -14 2 -23q8 -51 47 -83l6 -4h-167q2 2 5 4q44 34 47 93v497v52q0 5 -1 10q-3 70 -51 92q-20 9 -41 8q-22 -1 -38 -7q-27 -10 -41 -34q-12 -19 -18 -48q-8 -34 -8 -80v-100h101v-11
h-101v-366q0 -14 2 -23q8 -51 48 -83q2 -2 5 -4h-167q3 2 5 4q44 35 47 93v379h-39v11h39v101q0 82 48.5 131t129.5 49q42 0 74 -12q22 -8 40 -22q26 -22 26 -57v-278q32 100 152 100q104 0 143 -44.5t39 -134.5v-158v-52q0 -14 1 -23q9 -51 48 -83l6 -4h-168z" />
    <glyph glyph-name="fk.liga" unicode="fk" horiz-adv-x="749" 
d="M652 134q33 -80 101 -129l1 -1h-157h1q14 10 18.5 26.5t-1.5 32.5l-108 264l-129 -102v-112q0 -13 1 -22q9 -51 48 -83l6 -4h-168l6 4q43 35 46 93v65v430v34h1v18v3q0 4 -1 9q-3 71 -51 92q-19 9 -41 9q-22 -2 -38 -8q-27 -10 -41 -33q-12 -20 -18 -49q-8 -34 -8 -80
v-100h101v-11h-101v-366q0 -14 2 -23q8 -51 48 -83q2 -2 5 -4h-167q3 2 5 4q44 35 47 93v379h-39v11h39v101q0 82 48.5 131t129.5 49q42 0 74 -12q22 -8 40 -22q26 -22 26 -57v-111v-329l264 207q19 15 20 39.5t-17 40.5l-4 2h124l-210 -165z" />
    <glyph glyph-name="fj.liga" unicode="fj" horiz-adv-x="438" 
d="M171 9q2 -2 5 -4h-167q3 2 5 4q44 35 47 93v379h-39v11h39v101q0 82 48.5 131t129.5 49q42 0 74 -12q22 -8 40 -22q24 -20 26 -52h-64q-10 49 -48 66q-19 9 -41 9q-22 -2 -38 -8q-27 -10 -41 -33q-12 -20 -18 -49q-8 -34 -8 -80v-100h101v-11h-101v-366q0 -14 2 -23
q8 -51 48 -83zM379 490h52l-6 -4q-43 -35 -46 -93v-65v-385q0 -75 -42 -119.5t-118 -44.5q-106 0 -139 90h11q16 -40 52 -59.5t76 -19.5q45 0 72 36t27 112v443q0 13 -1 22q-9 51 -48 82q-3 3 -6 5h116zM346 653q12 0 22 -5.5t15.5 -15.5t5.5 -22q0 -18 -12.5 -30.5
t-30 -12.5t-30.5 12.5t-13 30.5t13 30.5t30 12.5z" />
    <glyph glyph-name="ca.liga" unicode="ca" horiz-adv-x="924" 
d="M869 108q0 -11 1.5 -21.5t4 -19.5t6.5 -17t7.5 -14t7.5 -11t7.5 -9t6.5 -6.5t4 -3.5l1 -1h-107v21q-52 -23 -112 -23q-41 0 -82.5 12t-67.5 33q-34 27 -48 62q-10 -19 -23.5 -36t-36.5 -35t-58.5 -28.5t-79.5 -10.5h-1.5h-2.5q-54 0 -111.5 20t-91.5 54q-75 75 -75 180
q0 104 74 178t202 74q105 0 179 -74q11 -11 20 -23l8 -10h-60l-1 3q-12 15 -25 29q-53 52 -129 55q-77 4 -128 -48q-33 -33 -49 -80t-14 -100q6 -111 79 -184q57 -56 126 -62q6 -1 15.5 -1t36 3.5t50 13t50 32.5t43.5 58q-7 19 -7 38q1 63 57 107q24 19 85 36q-23 24 -23 64
q0 73 59 111q31 21 68 21t66 -16t49 -47t20 -69v-255zM808 46v206q-5 4 -5 5q-42 32 -101 34q-61 2 -102 -30q-53 -42 -49 -102q4 -69 61 -114q43 -33 96.5 -34.5t93.5 30.5q3 2 6 5zM808 285v120q0 14 -3.5 25.5t-10 18.5t-13.5 12t-14.5 7.5t-13.5 3.5t-10 2h-4
q-42 0 -72 -20.5t-40 -49t-7.5 -57.5t18.5 -46q27 7 56 7h14q54 0 100 -23z" />
    <glyph glyph-name="ce.liga" unicode="ce" horiz-adv-x="1001" 
d="M829 494q126 -25 145 -131q7 -33 1 -61h-38q8 -14 15 -34.5t12.5 -50t-0.5 -64t-26 -64.5q-5 -8 -11.5 -16.5t-18.5 -20t-25 -21t-32 -17.5t-39 -11h-4t-8 -0.5t-8 -1.5q-57 -5 -123 12t-104 52q-3 4 -7 7q-29 29 -48 67q-4 -13 -10.5 -26.5t-23 -34.5t-37.5 -36.5
t-57 -27t-80 -11.5h-2h-2q-54 0 -112.5 20t-92.5 54q-75 75 -75 180q0 104 74 178t204 74q105 0 179 -74q11 -11 20 -23l8 -10h-60l-1 3q-12 15 -25 29q-53 52 -129 55q-77 4 -128 -48q-33 -33 -49 -80t-14 -100q6 -111 79 -184q57 -56 126 -62q2 0 5.5 -0.5t14.5 -0.5
t22 1.5t26.5 5t30 9t30.5 16t29.5 23.5t26 33t20.5 44q-30 64 -21 135q9 69 52 124q35 43 100.5 69t126.5 26h1q40 0 63 -6zM628 435q-48 -47 -60 -122h365q-2 35 -11 63t-20.5 45.5t-29 30.5t-31 19t-30.5 9t-24.5 3.5t-16.5 0.5h-3q-39 2 -76.5 -11t-62.5 -38zM929 95
q19 31 23.5 66t-4.5 65t-16.5 47t-15.5 29h-349q-3 -24 -2 -48q6 -112 79 -185q16 -16 34 -28t37 -18.5t38 -8.5q18 -2 42 0q52 5 90 34q26 19 44 47z" />
    <glyph glyph-name="co.liga" unicode="co" horiz-adv-x="1013" 
d="M741 510q105 0 179 -75t74 -180.5t-74.5 -180t-179.5 -74.5q-75 0 -136.5 40t-92.5 106q-4 -12 -10 -25.5t-22 -35t-37.5 -37.5t-58 -28t-81.5 -12h-1.5h-2.5q-54 0 -112.5 20t-92.5 54q-75 75 -75 180q0 104 74 178q77 77 204 74q108 -3 179 -75q11 -10 20 -22l8 -10
h-60l-1 3q-12 15 -25 29q-53 52 -129 55q-77 3 -128 -48q-33 -33 -49 -80t-14 -100q6 -111 79 -184q26 -26 59 -42.5t67 -19.5q3 -1 9 -1t23 1t33.5 4.5t38 12.5t39.5 23t35.5 38t27.5 55q-21 49 -21 102q0 52 20 99t54 81t81 54.5t99 20.5zM789 27q72 0 116.5 51t44.5 129
q0 34 -9 67.5t-27 64.5t-43 57q-18 20 -39 35.5t-43.5 26t-45.5 16t-46 5.5q-71 0 -115.5 -51t-44.5 -129q0 -34 9 -67.5t27 -64.5t42 -57q38 -40 83.5 -61.5t90.5 -21.5z" />
    <glyph glyph-name="ve.liga" unicode="ve" horiz-adv-x="935" 
d="M763 494q126 -25 146 -131q6 -33 1 -61h-39q9 -14 16 -34.5t12.5 -50t-1 -64t-25.5 -64.5q-7 -11 -16.5 -22t-25 -25t-38 -24.5t-46.5 -14.5h-4.5t-8.5 -0.5t-8 -1.5q-56 -5 -122.5 12t-104.5 52q-3 4 -6 7q-42 41 -61 96t-12 113q1 1 1 3v2q-42 -18 -77 -52
q-30 -29 -49 -75t-23 -73t-5 -51l3 -34h-56l-165 407l-1 1l-7 17q-12 31 -34 51q-6 4 -11 8h135h-1q-16 -11 -21 -30.5t3 -37.5l102 -252l44 -107q12 118 79 184q39 39 86 57q12 59 49 106q35 43 101 69t127 26q40 0 63 -6zM562 435q-47 -47 -59 -122h365q-2 35 -11 63
t-21 45.5t-29 30.5t-31 19t-31 9t-24.5 3.5t-16.5 0.5h-3q-39 2 -76.5 -11t-62.5 -38zM863 95q16 25 21.5 54t2.5 51.5t-11 46t-13.5 35t-11.5 20.5h-350q-3 -24 -2 -48q6 -112 80 -185q16 -16 34 -28t36.5 -18.5t38.5 -8.5q17 -2 41 0q53 5 91 34q25 19 43 47z" />
    <glyph glyph-name="va.liga" unicode="va" horiz-adv-x="788" 
d="M731 105q0 -16 5 -32.5t12 -29t14 -22.5t11.5 -15l4.5 -5h-107v22q-52 -23 -112 -23q-41 0 -82.5 12t-67.5 33q-58 45 -58 108q1 63 57 107q19 15 61 29q-80 -9 -126 -54q-30 -30 -49 -75.5t-23 -72.5t-5 -51l3 -35h-56l-165 408l-1 1l-7 17q-12 31 -34 51q-6 4 -11 8
h134v0q-16 -12 -21 -31t3 -37l102 -253l44 -107q12 119 79 185q55 54 152 58q-18 23 -18 58q0 74 59 112q31 20 68 20.5t66 -15.5t48.5 -47.5t19.5 -68.5v-255zM671 43v206l-5 4q-42 33 -101 35q-61 2 -102 -30q-53 -42 -49 -103q4 -68 61 -113q43 -34 96.5 -35t93.5 30z
M671 282v120q0 14 -3.5 25t-10 18t-13.5 12.5t-14.5 7.5t-13.5 3.5t-10 1.5h-4q-42 0 -72 -20.5t-40 -48.5t-7.5 -57t18.5 -46q27 6 56 6h13q55 0 101 -22z" />
    <glyph glyph-name="un.liga" unicode="un" horiz-adv-x="1022" 
d="M1009 16q2 -2 5 -4h-55h-60h-52q3 2 5 4q44 34 47 93v238q0 70 -27.5 110.5t-101.5 40.5q-68 0 -106 -41t-39 -120v-2v-215q1 -12 2 -22q9 -51 48 -82q2 -2 5 -4h-55h-60h-52q3 2 5 4q44 34 47 93v64v217q0 11 -1 20q-3 12 -7 25l-4 10q39 17 65 51q35 46 35 104
q0 74 -54 125t-129 45q-64 -4 -109.5 -50.5t-48.5 -110.5q-4 -63 35 -112q40 -53 105 -65q-2 -5 -3 -10q-3 -15 -3 -31v-274q0 -27 9 -49q12 -31 37 -52l6 -4h-52h-60v87l-6 -16q-37 -83 -146 -83q-105 0 -143.5 44t-38.5 135v227q-7 54 -46 86l-6 4h164q-3 -2 -5 -4
q-26 -20 -38 -52q-9 -22 -9 -49v-229q0 -70 27.5 -110.5t101.5 -40.5q68 0 106.5 41t38.5 120v219q0 27 -10 53q-5 12 -15 22q-60 54 -60 134q0 79 57.5 133t136.5 48q66 -4 114 -51t54 -113q4 -45 -13 -87q-25 -58 -25 -121q33 99 152 99q105 0 143.5 -44t38.5 -134v-157
v-52q0 -13 2 -22q8 -52 48 -83z" />
    <glyph glyph-name="ou.liga" unicode="ou" horiz-adv-x="1050" 
d="M997 69q13 -32 38 -52q3 -2 5 -4h-52h-60v87l-6 -16q-36 -83 -146 -83q-104 0 -143 44t-39 134v228q0 5 -2 11q62 22 96 79q26 44 26 95q0 50 -24.5 92.5t-67 67.5t-93.5 25q-76 0 -130.5 -54.5t-54.5 -130.5q0 -58 33 -105q53 -25 90 -69q5 -7 11 -15q48 -67 48 -148
q0 -106 -75 -180.5t-180 -74.5q-104 0 -178.5 74.5t-74.5 180t74.5 180.5t179.5 75q46 0 88 -16q-26 45 -26 98q0 81 57 138.5t138 57.5t138.5 -57.5t57.5 -138.5q0 -30 -8 -56.5t-16.5 -39.5t-19 -25.5t-10.5 -14.5q-5 -7 -8 -15q-8 -23 -8 -50v-229q0 -70 27.5 -110.5
t101.5 -40.5q68 0 106 41t38 121v219q0 27 -9 49q-12 32 -37 52l-6 4h164q-2 -2 -5 -4q-25 -20 -38 -52q-9 -22 -9 -49v-274q0 -27 9 -49zM481 207q0 34 -9 67.5t-26.5 64.5t-42.5 57q-25 27 -54 45.5t-59.5 28t-60.5 9.5q-72 0 -116.5 -51t-44.5 -129q0 -51 20.5 -100.5
t58.5 -88.5q37 -40 82.5 -61.5t91.5 -21.5q72 0 116 51t44 129z" />
    <glyph glyph-name="ot.liga" unicode="ot" horiz-adv-x="867" 
d="M856 92h10q-30 -92 -136 -92q-148 0 -148 155v319q16 16 27 35q26 43 26 94v11q-4 73 -57.5 123.5t-127.5 50.5q-76 0 -130.5 -54t-54.5 -131q0 -43 20 -82q39 -2 75 -16l17 -7q53 -24 90 -69q5 -6 11 -15q48 -66 48 -148q0 -105 -75 -179.5t-180 -74.5
q-104 0 -178.5 74.5t-74.5 180t74.5 180t179.5 74.5h1q-19 40 -19 82q0 81 57.5 138.5t138.5 57.5t138.5 -57.5t57.5 -138.5q0 -21 -4 -40l-1 -67h102v-10h-101v-333q0 -68 18 -105t70 -37q98 0 126 81zM403 408q-38 39 -83.5 61t-90.5 22q-72 0 -116.5 -51.5t-44.5 -129.5
q0 -50 20.5 -99.5t58.5 -89.5q24 -26 53 -44.5t59.5 -28t61.5 -9.5q72 0 116 51t44 129q0 50 -20.5 99.5t-57.5 89.5z" />
    <glyph glyph-name="et.liga" unicode="et" horiz-adv-x="877" 
d="M866 92h11q-30 -92 -137 -92q-148 0 -148 155v319q16 16 27 35q27 43 27 94q0 5 -1 11q-2 48 -27.5 88t-67 63t-90.5 23q-76 0 -130.5 -54t-54.5 -131q0 -43 20 -82l6 -10q39 0 62 -5q50 -10 83.5 -33.5t45.5 -50t17 -51.5t2 -41l-2 -16h-38q8 -15 15 -35t12.5 -49.5
t-0.5 -64t-26 -64.5q-10 -16 -23 -31t-42 -33t-61 -22l-2.5 -0.5t-5 -0.5t-6.5 -0.5t-6 -0.5q-57 -6 -123 11.5t-104 52.5q-3 3 -7 6q-41 42 -60 96.5t-12 113.5q8 69 52 123q33 42 94.5 67.5t121.5 27.5q-3 5 -5 10q-5 11 -9 23l-1 2q-8 28 -8 57q0 81 57.5 138.5t138 57.5
t138 -57.5t57.5 -138.5q0 -21 -4 -40v-67h101v-10h-100v-333q0 -68 17.5 -105t69.5 -37q98 0 126 81zM463 107q19 30 23.5 65t-4.5 65t-16.5 47t-15.5 30h-350q-2 -24 -1 -48q5 -112 79 -186q48 -48 109 -55q18 -1 42 1q52 5 90 33q26 20 44 48zM301 496q-39 2 -76.5 -11
t-62.5 -38q-48 -48 -60 -122h365q-2 35 -11 63t-21 45.5t-29 30t-30.5 18.5t-30.5 9.5t-24.5 4t-16.5 0.5h-3z" />
    <glyph glyph-name="at.liga" unicode="at" horiz-adv-x="769" 
d="M758 92h10q-30 -92 -136 -92q-148 0 -148 155v319q16 16 27 35q26 43 26 94v11q-4 73 -57.5 123.5t-127.5 50.5q-76 0 -130.5 -54t-54.5 -131q0 -43 20 -82q6 -11 20 -30q31 15 64 10.5t59.5 -20.5t43.5 -46t17 -65v-255q0 -18 5 -35.5t12 -29t14 -21t11.5 -13.5l4.5 -4
h-107v21q-53 -23 -113 -23q-40 0 -81.5 12t-68.5 33q-57 45 -57 108t56 107q25 19 86 36q-23 24 -23 64q0 73 58 111q3 2 7 4q-14 22 -20 36q-5 11 -9 23l-1 2q-9 28 -9 57q0 81 57.5 138.5t138.5 57.5q53 0 98.5 -26t71.5 -71t26 -99q0 -21 -4 -40v-67h101v-10h-101v-333
q0 -68 18 -105t70 -37q98 0 126 81zM331 53v206q-5 4 -6 4q-41 33 -101 35q-61 2 -102 -30q-53 -42 -49 -103q5 -68 62 -113q42 -33 95.5 -34.5t93.5 30.5q3 2 7 5zM262 481q-43 0 -72.5 -20.5t-40 -49t-8 -57.5t18.5 -46q28 6 57 6h13q55 0 101 -22v120q0 19 -7 33
t-17.5 20.5t-20.5 10.5t-17 4z" />
    <glyph glyph-name="ll.liga" unicode="ll" horiz-adv-x="554" 
d="M543 92h10q-30 -92 -136 -92q-83 0 -119 48q-37 -48 -114 -48q-148 0 -148 155v231v244q0 12 -2 21q-8 51 -47 82q-3 3 -6 5h167q-2 -2 -5 -4q-44 -35 -47 -93v-255v-233q0 -68 18 -105t70 -37q74 0 108 46q-23 37 -23 98v231v244q0 12 -2 21q-8 51 -47 82q-3 3 -6 5h167
q-2 -2 -5 -4q-44 -35 -47 -93v-255v-233q0 -68 18 -105t70 -37q98 0 126 81z" />
    <glyph glyph-name="ff.liga" unicode="ff" horiz-adv-x="438" 
d="M457 773q119 0 154 -91h-52q-1 4 -4 10q-9 22 -14.5 31.5t-16.5 20.5t-26.5 14.5t-40.5 3.5q-67 0 -92 -41.5t-25 -128.5v-100h100v-11h-100v-366q0 -14 1 -23q9 -51 48 -83l6 -4h-168l6 4q44 35 46 93v379h-31h-128v-367q0 -13 2 -22q8 -51 48 -83q2 -2 5 -4h-167
q3 2 5 4q44 35 47 93v379h-39v11h39v101q0 82 48.5 131t129.5 49q69 0 110 -32q44 32 109 32zM279 593q0 78 44 126q-12 23 -30 33t-55 10q-67 0 -92.5 -41.5t-25.5 -128.5v-100h159v101z" />
    <glyph glyph-name="fi.liga" unicode="fi" horiz-adv-x="441" 
d="M317 686q-10 49 -48 66q-20 9 -41 8q-22 -1 -38 -7q-27 -10 -41 -34q-12 -19 -18 -48q-8 -34 -8 -80v-100h101v-11h-101v-366q0 -14 2 -23q8 -51 48 -83q2 -2 5 -4h-167q3 2 5 4q44 35 47 93v379h-39v11h39v101q0 82 48.5 131t129.5 49q42 0 74 -12q22 -8 40 -22
q24 -20 26 -52h-64zM427 8l6 -4h-168q3 2 5 4q44 35 47 93v65v161v52q0 13 -1 23q-9 51 -48 82q-3 2 -6 5h168l-6 -4q-43 -35 -46 -93v-279q0 -13 1 -22q9 -51 48 -83zM346.5 652q17.5 0 30 -12.5t12.5 -30.5t-12.5 -30.5t-30 -12.5t-30.5 12.5t-13 30.5t13 30.5t30.5 12.5z
" />
    <glyph glyph-name=".notdef" horiz-adv-x="527" 
d="M50 700h427v-700h-427v700zM78 680l185 -309l186 309h-371zM251 350l-180 300v-601zM264 329l-185 -308h370zM276 350l181 -303v605z" />
    <glyph glyph-name=".null" horiz-adv-x="0" 
 />
    <glyph glyph-name=".null" horiz-adv-x="0" 
 />
    <glyph glyph-name="nonmarkingreturn" horiz-adv-x="333" 
 />
    <glyph glyph-name="LF" unicode="&#xa;" horiz-adv-x="0" 
 />
    <glyph glyph-name="controlCR" unicode="&#xd;" horiz-adv-x="0" 
 />
    <glyph glyph-name="space" unicode=" " horiz-adv-x="335" 
 />
    <glyph glyph-name="exclam" unicode="!" horiz-adv-x="199" 
d="M94.5 56q21.5 0 33.5 -13t12 -32.5t-12 -32t-33.5 -12.5t-33.5 12.5t-12 32t12 32.5t33.5 13zM100 187h-11l-60 500h143z" />
    <glyph glyph-name="quotedbl" unicode="&#x22;" horiz-adv-x="300" 
d="M72 551q20 0 32.5 -12t12.5 -33q0 -19 -12.5 -32t-31.5 -13q-51 0 -51 60v25q0 92 70 92q8 0 16 -2v-10q-8 1 -16 1q-58 0 -58 -81v-12q12 17 38 17zM265.5 539q11.5 -12 11.5 -33q0 -19 -12.5 -32t-31.5 -13q-51 0 -51 60v25q0 92 70 92q8 0 17 -2v-10q-9 1 -17 1
q-58 0 -58 -81v-12q12 17 38 17q22 0 33.5 -12z" />
    <glyph glyph-name="numbersign" unicode="#" horiz-adv-x="562" 
d="M553 461h-140l-39 -269h150v-11h-151l-28 -205h-11l28 205h-204l-28 -205h-11l28 205h-139v11h140l39 269h-150v11h151l28 204h11l-28 -204h204l28 204h11l-28 -204h139v-11zM363 192l39 269h-204l-39 -269h204z" />
    <glyph glyph-name="dollar" unicode="$" horiz-adv-x="559" 
d="M480 321.5q51 -54.5 51 -128.5q0 -101 -73 -164q-71 -61 -173 -63v-63h-10v63q-92 0 -158 35q-66 36 -86 98h56q7 -20 18.5 -38.5t29 -35t39.5 -26.5q45 -21 101 -20v332h-44q-202 0 -202 162q0 93 70.5 153.5t170.5 60.5h2.5h2.5v65h10v-65q79 -3 137 -35q63 -36 83 -98
h-59q-18 49 -81 89q-37 24 -80 30v-297h47q97 0 148 -54.5zM275 376v298q-44 3 -83.5 -10.5t-60.5 -32.5q-50 -45 -50 -125q0 -60 41.5 -95t121.5 -35h31zM426 27q50 37 50 139q0 60 -39 102.5t-117 42.5h-35v-332q83 5 141 48z" />
    <glyph glyph-name="percent" unicode="%" horiz-adv-x="687" 
d="M623.5 294.5q44.5 -47.5 44.5 -140.5t-44.5 -140.5t-110 -47.5t-109.5 47.5t-44 140.5t44 140.5t109.5 47.5t110 -47.5zM603 130v48q0 156 -89.5 156t-89.5 -156v-48q0 -156 89.5 -156t89.5 156zM516 676h10l-366 -700h-10zM285 358q-44 -48 -110 -48t-110 48t-44 140.5
t44 140.5t110 48t110 -48t44 -140.5t-44 -140.5zM86 475q0 -156 89 -156t89 156v47q0 156 -89 156t-89 -156v-47z" />
    <glyph glyph-name="ampersand" unicode="&#x26;" horiz-adv-x="656" 
d="M509 99l97 -135h-79l-52 75q-36 -47 -88 -73.5t-112 -26.5q-104 0 -178 74t-74 179q0 85 49 152t124 88q-66 56 -66 132q0 55 44 94.5t101 39.5q51 0 90.5 -32.5t48.5 -81.5l-47 -48q-13 56 -51 95t-86 39q-27 0 -39.5 -21.5t-12.5 -50.5v-1q0 -41 18 -64l304 -422
q10 27 13.5 55.5t-3.5 63.5t-27 65q-40 64 -90 81v59q63 -20 98.5 -83t35.5 -152q0 -54 -18 -101zM331 -36q31 0 57.5 11t45.5 30.5t32 45.5l-261 371q-40 -12 -69.5 -33.5t-47.5 -55t-18 -74.5q0 -75 39 -144.5t99.5 -110t122.5 -40.5z" />
    <glyph glyph-name="quotesingle" unicode="'" horiz-adv-x="139" 
d="M72 551q20 0 32.5 -12t12.5 -33q0 -19 -12.5 -32t-31.5 -13q-51 0 -51 60v25q0 92 70 92q8 0 16 -2v-10q-8 1 -16 1q-58 0 -58 -81v-12q12 17 38 17z" />
    <glyph glyph-name="parenleft" unicode="(" horiz-adv-x="155" 
d="M142 698.5q-45 -54.5 -70 -148t-25 -218.5t25 -219t70 -148t98.5 -80.5t117.5 -26.5v-11q-66 0 -122 27t-101.5 82.5t-72 151.5t-26.5 224t26.5 224t72 151t101.5 82t122 27v-10q-64 0 -117.5 -26.5t-98.5 -81z" />
    <glyph glyph-name="parenright" unicode=")" horiz-adv-x="155" 
d="M92.5 556q26.5 -96 26.5 -224t-26.5 -224t-72 -151.5t-101.5 -82.5t-122 -27v11q64 0 117.5 26.5t98.5 80.5t70 148t25 219t-25 218.5t-70 148t-98.5 81t-117.5 26.5v10q66 0 122 -27t101.5 -82t72 -151z" />
    <glyph glyph-name="asterisk" unicode="*" horiz-adv-x="300" 
d="M278 564q3 -14 -3.5 -26.5t-26.5 -15.5q-65 -7 -74 -7q14 -10 56 -51q15 -16 12.5 -29t-13.5 -22q-9 -8 -24.5 -5.5t-24.5 20.5q-26 56 -30 69q-2 -6 -6 -14.5t-11 -24.5q-8 -17 -13 -30q-19 -36 -50 -15q-12 9 -13 22t13 29q42 41 56 51q-10 0 -75 7q-21 3 -27.5 15.5
t-1.5 26.5q4 13 16 19t32 -3q58 -32 65 -37q-6 16 -15 73q-3 20 6 30.5t24 10.5q14 0 23.5 -10.5t6.5 -30.5q-9 -49 -16 -73q14 9 66 37q20 9 32 3t16 -19z" />
    <glyph glyph-name="plus" unicode="+" horiz-adv-x="520" 
d="M261 337h209v-11h-209v-202h-11v202h-200v11h200v203h11v-203z" />
    <glyph glyph-name="comma" unicode="," horiz-adv-x="119" 
d="M37 -126q-8 0 -16 1v11q8 -1 16 -1q58 0 58 86v12q-12 -17 -38 -17q-20 0 -32.5 11.5t-12.5 33.5q0 19 12.5 32t31.5 13q51 0 51 -60v-25q0 -97 -70 -97z" />
    <glyph glyph-name="hyphen" unicode="-" horiz-adv-x="269" 
d="M263 294h-258v11h258v-11z" />
    <glyph glyph-name="period" unicode="." horiz-adv-x="119" 
d="M107 9.5q0 -20.5 -12.5 -34t-35 -13.5t-35 13.5t-12.5 34t12.5 34t35 13.5t35 -13.5t12.5 -34z" />
    <glyph glyph-name="slash" unicode="/" horiz-adv-x="520" 
d="M459 784h11l-409 -1023h-11z" />
    <glyph glyph-name="zero" unicode="0" horiz-adv-x="564" 
d="M448 638.5q37 -39.5 60 -112.5t23 -169.5t-23 -169.5t-60 -113t-79 -59t-87 -19t-87 19t-79.5 59t-60 113t-22.5 169.5t22.5 169.5t60 112.5t79.5 59t87 19.5t87 -19.5t79 -59zM454 302v109q0 153 -49 224t-123.5 71t-123.5 -71t-49 -224v-109q0 -153 49 -224.5
t123.5 -71.5t123.5 71.5t49 224.5z" />
    <glyph glyph-name="one" unicode="1" horiz-adv-x="316" 
d="M245 87q4 -51 45 -81h-156q45 33 49 86v585q-74 -44 -127 -77q-3 5 -6 11l158 95h37v-619z" />
    <glyph glyph-name="two" unicode="2" horiz-adv-x="483" 
d="M307 308l-228 -239h387v-63h-443v32l150 148q179 186 179 319v38q0 64 -41 113.5t-108 49.5h-12q-18 -2 -32 -11t-24 -24.5t-16 -27.5t-13 -30.5t-10 -23.5h-89q24 59 77 93q20 13 41 21q36 14 78 14q95 0 160 -51.5t65 -139.5q0 -52 -29 -102.5t-92 -115.5z" />
    <glyph glyph-name="three" unicode="3" horiz-adv-x="465" 
d="M430 534q0 -150 -175 -172q175 -22 175 -172q0 -79 -59.5 -131.5t-162.5 -52.5q-63 0 -116 34t-77 94h89q3 -5 10 -25t13.5 -32.5t17 -28t26.5 -23t36 -7.5q78 0 111 48.5t33 115.5v16q0 69 -37.5 114.5t-117.5 45.5h-47v8h47q80 0 117.5 45.5t37.5 113.5v17
q0 66 -33 115t-111 49q-17 0 -31 -6.5t-23 -15.5t-17.5 -23t-13 -25t-10 -25.5t-8.5 -20.5h-89q24 60 77 93.5t116 33.5q103 0 162.5 -52t59.5 -131z" />
    <glyph glyph-name="four" unicode="4" horiz-adv-x="609" 
d="M401 87q4 -51 45 -81h-157q45 33 49 86v96h-288l5 11l215 507h68l-216 -507h216v193h63v-193h10q56 0 100 32l35 -32l12 -10v-1h-157v-101z" />
    <glyph glyph-name="five" unicode="5" horiz-adv-x="478" 
d="M220 448q100 0 164.5 -62t64.5 -164q0 -101 -62.5 -163.5t-158.5 -62.5h-1h-1h-4q-18 0 -38 3q-45 7 -80 28q-34 22 -53 55q-13 19 -22 41h89l11.5 -28t19.5 -43q13 -21 34 -33t45 -13q73 0 109 52t36 132v64q0 79 -39.5 131t-113.5 52q-100 0 -157 -91h-11v360h368v-62
h-357v-279q52 83 157 83z" />
    <glyph glyph-name="six" unicode="6" horiz-adv-x="471" 
d="M247 416q90 0 146 -58t56 -152q0 -90 -57.5 -150t-151.5 -60q-96 0 -154.5 60.5t-58.5 158.5q0 88 29 179q0 1 1 3l1 2q7 22 15 41q44 104 131 180q90 79 187 97l1 -6q-81 -14 -163.5 -110t-110.5 -207q-12 -53 -15 -98q14 55 53 87.5t91 32.5zM373 180v52
q0 76 -33.5 124.5t-96.5 48.5t-101.5 -51.5t-38.5 -127.5v-46q0 -74 38.5 -124t101.5 -50t96.5 48.5t33.5 125.5z" />
    <glyph glyph-name="seven" unicode="7" horiz-adv-x="529" 
d="M70 706h409l-5 -10l-270 -634q-6 -13 3.5 -28.5t24.5 -27.5h-52v0h-104q32 24 60 54l270 636h-211q-54 -1 -98 -33l-35 33l-12 10h20z" />
    <glyph glyph-name="eight" unicode="8" horiz-adv-x="502" 
d="M418.5 307q49.5 -44 49.5 -121q0 -88 -62 -139t-155.5 -51t-155.5 51t-62 139q0 77 49.5 121t128.5 58q-72 10 -119.5 52.5t-47.5 114.5q0 87 59 136t147.5 49t147.5 -49t59 -136q0 -72 -47 -114.5t-120 -52.5q79 -14 128.5 -58zM155 412q35 -42 95.5 -42t95.5 42t35 104
v35q0 70 -31.5 112.5t-99 42.5t-99 -42.5t-31.5 -112.5v-35q0 -62 35 -104zM392 167v40q0 68 -37.5 110.5t-104 42.5t-104 -42.5t-37.5 -110.5v-40q0 -74 34.5 -117.5t107 -43.5t107 43.5t34.5 117.5z" />
    <glyph glyph-name="nine" unicode="9" horiz-adv-x="473" 
d="M445 498q0 -88 -29 -179q0 -1 -1 -3l-1 -2q-6 -22 -15 -41q-44 -104 -131 -180q-90 -79 -187 -97l-1 6q81 14 163.5 110t110.5 207q13 53 15 98q-14 -55 -53 -87.5t-91 -32.5q-90 0 -146 57.5t-56 152.5q0 90 57.5 150t151.5 60q96 0 154.5 -60.5t58.5 -158.5zM369 487
v46q0 74 -38.5 123.5t-101.5 49.5t-96.5 -48t-33.5 -125v-52q0 -76 33.5 -124.5t96.5 -48.5t101.5 51.5t38.5 127.5z" />
    <glyph glyph-name="colon" unicode=":" horiz-adv-x="135" 
d="M67.5 60q22.5 0 35 -13.5t12.5 -33.5t-12.5 -33.5t-35 -13.5t-35 13.5t-12.5 33.5t12.5 33.5t35 13.5zM67.5 333q-22.5 0 -35 13.5t-12.5 34t12.5 34t35 13.5t35 -13.5t12.5 -34t-12.5 -34t-35 -13.5z" />
    <glyph glyph-name="semicolon" unicode=";" horiz-adv-x="135" 
d="M64 58q51 0 51 -60v-25q0 -97 -70 -97q-8 0 -16 1v11q8 -1 16 -1q58 0 58 86v12q-12 -17 -38 -17q-20 0 -32.5 11.5t-12.5 33.5q0 19 12.5 32t31.5 13zM67.5 333q-22.5 0 -35 13.5t-12.5 34t12.5 34t35 13.5t35 -13.5t12.5 -34t-12.5 -34t-35 -13.5z" />
    <glyph glyph-name="less" unicode="&#x3c;" horiz-adv-x="464" 
d="M456 546v-10l-440 -204l440 -205v-10l-450 209v11z" />
    <glyph glyph-name="equal" unicode="=" horiz-adv-x="434" 
d="M427 222h-420v11h420v-11zM427 437h-420v11h420v-11z" />
    <glyph glyph-name="greater" unicode="&#x3e;" horiz-adv-x="464" 
d="M7 546l450 -209v-11l-450 -209v10l440 205l-440 204v10z" />
    <glyph glyph-name="question" unicode="?" horiz-adv-x="490" 
d="M190.5 56q21.5 0 33.5 -13t12 -32.5t-12 -32t-33.5 -12.5t-33.5 12.5t-12 32t12 32.5t33.5 13zM469 551q13 -102 -67 -180q-32 -32 -53.5 -50.5t-56.5 -41t-76 -38.5l-16 -102h-15v110q67 31 110 67.5t61 74.5t23.5 70t2.5 69q-4 56 -46 117q-31 47 -87 48q-23 0 -34 -5
q-17 -6 -30.5 -22t-19.5 -28.5t-15 -35t-11 -26.5h-89q24 60 77 93q20 13 41 21q33 13 66 14v0q86 5 155 -39q70 -45 80 -116z" />
    <glyph glyph-name="at" unicode="@" horiz-adv-x="790" 
d="M657 623.5q105 -96.5 105 -280.5q0 -100 -45 -164q-43 -62 -106 -64h-2q-1 0 -1 -0.5t-0.5 -0.5t-1 0.5l-0.5 0.5h-101v21q-53 -23 -113 -23q-40 0 -81.5 12t-68.5 33q-57 45 -57 108t56 107q25 19 85 36q-22 24 -22 64q0 73 58 111q32 21 68.5 21t66 -16t49 -47
t19.5 -69v-255q0 -54 36 -93q5 -1 9 -1q59 0 100.5 61t41.5 158q0 181 -102.5 274t-265.5 93q-49 0 -97 -14t-93 -44.5t-78.5 -74.5t-54 -109t-20.5 -142q0 -96 31 -172t82 -121t110.5 -68t119.5 -23q134 0 233 96h14q-101 -105 -247 -105q-64 0 -125 23.5t-113 69.5
t-83.5 124t-31.5 176q0 99 31.5 176.5t83.5 123.5t113 70t125 24q168 0 273 -96.5zM505 156v206l-6 4q-41 33 -101 35q-61 2 -102 -30q-53 -42 -49 -103q5 -68 62 -113q42 -33 95.5 -34.5t93.5 30.5q3 2 7 5zM505 395v120q0 19 -7.5 33t-17.5 20.5t-20 10.5t-17 4l-8 1
q-42 0 -71.5 -21t-40 -49t-8 -57t18.5 -46q28 6 57 6h13q54 0 101 -22z" />
    <glyph glyph-name="A" unicode="A" horiz-adv-x="540" 
d="M489 84q20 -52 65 -84h-157q19 14 26 36.5t-2 44.5l-53 142h-1l-4 11h1l-10 24h-216l-63 -168q-9 -23 -4.5 -47t20.5 -43h-107l25 18q34 24 49 64l181 481l-52 137h27h42zM142 269h208l-104 275z" />
    <glyph glyph-name="B" unicode="B" horiz-adv-x="534" 
d="M468.5 306q46.5 -45 46.5 -115q0 -87 -67 -139t-170 -52h-270q51 37 59 100v500q-8 63 -59 100h259q99 0 157 -44.5t58 -129.5q0 -63 -38 -106.5t-118 -55.5q96 -13 142.5 -58zM129 689v-322h138q74 0 107 35.5t33 119.5v12q0 84 -33 119.5t-107 35.5h-138zM439 178v23
q0 155 -161 155h-149v-345h149q85 0 123 42t38 125z" />
    <glyph glyph-name="C" unicode="C" horiz-adv-x="667" 
d="M594 122l1 1h66l-2 -3q-12 -14 -24 -26q-34 -35 -76.5 -58.5t-87.5 -35.5t-91.5 -12t-91.5 12t-87.5 36t-77.5 59q-52 51 -79.5 117.5t-27.5 139.5q0 72 27.5 137.5t78.5 116.5q69 69 162 94t186.5 0t163.5 -95q14 -14 28 -32l3 -3h-70v1q-17 23 -37 43q-25 25 -56 43
t-65.5 28t-70.5 12q-115 5 -192 -73q-49 -48 -73 -118t-20 -149q4 -78 34.5 -149.5t82.5 -122.5q80 -81 181 -84t177 73q21 22 38 48z" />
    <glyph glyph-name="D" unicode="D" horiz-adv-x="633" 
d="M591 494q21 -63 21 -144t-21 -144t-54 -101t-79 -62.5t-91.5 -33.5t-95.5 -9h-263q28 20 43.5 50.5t15.5 65.5v468q0 35 -15.5 65.5t-43.5 50.5h263q50 0 95.5 -9t91.5 -33.5t79 -62.5t54 -101zM536 295v110q0 79 -22.5 136.5t-61.5 88.5t-83 45t-96 14h-142v-678h142
q52 0 96 14t83 45t61.5 88.5t22.5 136.5z" />
    <glyph glyph-name="E" unicode="E" horiz-adv-x="379" 
d="M367 11l12 -11h-53h-318q28 20 43.5 50.5t15.5 65.5v468q0 35 -15.5 65.5t-43.5 50.5h371l-12 -11l-35 -32q-45 32 -101 32h-101v-210h190v-11h-190v-457h102q55 0 100 32z" />
    <glyph glyph-name="F" unicode="F" horiz-adv-x="368" 
d="M7 700h371l-12 -11l-35 -32q-45 32 -101 32h-101v-210h190v-11h-190l1 -372v-7q0 -56 45 -89h-156q48 35 48 95l-1 489q0 35 -15.5 65.5t-43.5 50.5z" />
    <glyph glyph-name="G" unicode="G" horiz-adv-x="714" 
d="M564 350h142q-2 -2 -4.5 -4t-4.5 -4q-33 -29 -33 -76l-3 -143l-2 -3q-12 -14 -24 -26q-34 -35 -76.5 -58.5t-87.5 -35.5t-91.5 -12t-91.5 12t-87.5 36t-77.5 59q-52 51 -79.5 117.5t-27.5 139.5q0 72 27.5 137.5t78.5 116.5q69 69 162 94t186.5 0t163.5 -95
q14 -14 28 -32l3 -3h-70v1q-17 23 -37 43q-38 37 -88 59t-104 24q-115 5 -192 -73q-49 -48 -73 -118t-20 -149q4 -78 34.5 -149.5t82.5 -122.5q80 -81 191.5 -84t187.5 73q21 22 38 48l1 1h1l-15 158q-4 41 -33 65q-3 2 -5 4z" />
    <glyph glyph-name="H" unicode="H" horiz-adv-x="660" 
d="M596 103q0 -62 47 -99q2 -2 5 -4h-167q8 6 16 13q37 36 37 90v155h-409v-154q0 -51 32 -86q10 -10 21 -18h-167l1 1q50 36 50 101v496q0 65 -50 101l-1 1h167q-11 -8 -21 -18q-32 -35 -32 -86v-327h409v328q0 54 -37 90q-8 7 -16 13h167q-3 -2 -5 -4q-47 -37 -47 -99
v-494z" />
    <glyph glyph-name="I" unicode="I" horiz-adv-x="188" 
d="M125 104q0 -63 47 -100q3 -2 5 -4h-167q3 2 5 4q47 37 47 100v492q0 63 -47 100q-2 2 -5 4h167q-2 -2 -5 -4q-47 -37 -47 -100v-492z" />
    <glyph glyph-name="J" unicode="J" horiz-adv-x="440" 
d="M265 700h167l-1 -1q-50 -37 -50 -102v-387q0 -104 -51.5 -162.5t-157.5 -58.5q-65 0 -114 32t-64 91h11q14 -55 60.5 -83.5t106.5 -28.5q146 0 146 214v382q0 55 -37 91q-8 7 -16 13z" />
    <glyph glyph-name="K" unicode="K" horiz-adv-x="587" 
d="M448 86q36 -50 86 -86h-157q15 11 18 29.5t-8 33.5l-186 261l-75 -76v-146q0 -61 45 -98l6 -4h-167q11 8 21 18q32 35 32 86v492q0 51 -32 86q-10 10 -21 18h167v-1q-51 -36 -51 -101v-334l328 334q22 22 19.5 53t-28.5 49h157q-79 -48 -144 -114l-61 -62l-22 -23
l-168 -170l62 4z" />
    <glyph glyph-name="L" unicode="L" horiz-adv-x="498" 
d="M498 11l12 -11h-53h-446q1 0 1 1q50 36 50 100v498q0 64 -50 100l-1 1h167q-3 -2 -5 -4q-49 -39 -49 -104v-575h239q55 0 100 32z" />
    <glyph glyph-name="M" unicode="M" horiz-adv-x="754" 
d="M691 104q0 -63 46 -100l6 -4h-167q3 2 6 5q46 37 46 100v570l-12 -20l-246 -411h-39l-243 392l-10 16v-539q1 -72 59 -113h-129q54 39 59 106v478q0 18 -3 31q-12 53 -56 85h120l254 -411l226 378q-13 19 -32 33h167q-3 -2 -5 -4q-47 -37 -47 -100v-492z" />
    <glyph glyph-name="N" unicode="N" horiz-adv-x="641" 
d="M505 700h129q-44 -32 -56 -85q-3 -14 -3 -31v-584h-36l-451 637l-10 15v-543q3 -69 59 -109h-129q48 34 58 93q1 9 1 23v468q0 14 -1 23q-10 59 -58 93h122l435 -619v503q0 9 -1 15q-6 64 -59 101z" />
    <glyph glyph-name="O" unicode="O" horiz-adv-x="626" 
d="M313 711q124 0 211.5 -88t87.5 -212.5t-88 -212.5t-212 -88q-123 0 -210.5 88t-87.5 212.5t87.5 212.5t211.5 88zM351 138q86 0 149 66.5t63 157.5q0 82 -40 156.5t-107 119.5t-140 45q-57 0 -106 -30.5t-77.5 -82t-28.5 -111.5q0 -82 40 -156.5t106.5 -119.5t140.5 -45z
M313 69q18 0 30.5 -12.5t12.5 -30.5t-12.5 -30.5t-30.5 -12.5t-30.5 12.5t-12.5 30.5t12.5 30.5t30.5 12.5z" />
    <glyph glyph-name="P" unicode="P" horiz-adv-x="496" 
d="M469 541.5q11 -43.5 11 -98.5q0 -95 -33 -156q-11 -20 -25 -36q-4 -5 -8 -8q-57 -58 -150 -58h-141v-96q0 -56 46 -89h-157q49 35 49 95v510q0 60 -49 95h252q37 0 69 -9q52 -16 89 -56q7 -9 13 -18q23 -32 34 -75.5zM418 422v41v15q-1 21 -2 40q-5 52 -17 86
q-6 17 -15 30q-16 25 -50 39q-32 12 -70 12h-141v-485h141q33 0 62 10q8 2 16 6q16 8 27 18q9 8 15 17q5 7 8 14q20 42 25 115q0 13 1 28v14z" />
    <glyph glyph-name="Q" unicode="Q" horiz-adv-x="753" 
d="M734 350q0 -91 -41.5 -169t-113.5 -127l91 -28l-31 -68l-112 65q-73 -34 -152 -34q-97 0 -179.5 47.5t-131 131t-48.5 182.5t49 182.5t131.5 131t179.5 47.5q96 0 178.5 -47.5t131 -131t48.5 -182.5zM411 106l157 -49q55 40 87.5 102t32.5 131q0 101 -48.5 193.5
t-132 150t-177.5 57.5q-73 0 -135 -40t-97 -104.5t-35 -136.5q0 -101 48.5 -193.5t132 -150t178.5 -57.5q49 0 95 20l-112 65z" />
    <glyph glyph-name="R" unicode="R" horiz-adv-x="502" 
d="M394 86q36 -50 86 -86h-156q15 11 18 29.5t-8 33.5l-88 122h-123v-96q0 -56 46 -89h-157q49 35 49 95v510q0 60 -49 95h252q99 0 157.5 -65.5t58.5 -192t-58 -191.5q-42 -46 -103 -60zM123 685v-485h141q38 0 71 13t49 38q34 52 34 171v41q0 119 -34 171
q-10 17 -29.5 28.5t-42.5 17t-48 5.5h-141z" />
    <glyph glyph-name="S" unicode="S" horiz-adv-x="538" 
d="M470 345.5q51 -54.5 51 -129.5q0 -101 -73.5 -164t-179.5 -63q-94 0 -160.5 35.5t-86.5 98.5h56q10 -31 32.5 -58.5t54.5 -41.5q66 -27 135.5 -17.5t116.5 44.5q50 38 50 140q0 60 -39 102.5t-117 42.5h-89q-202 0 -202 161q0 94 70.5 154.5t170.5 60.5q89 0 152 -35.5
t83 -98.5h-59q-18 50 -81 90q-43 28 -93.5 30.5t-85 -10.5t-55.5 -32q-50 -45 -50 -125q0 -60 41.5 -95t121.5 -35h88q97 0 148 -54.5z" />
    <glyph glyph-name="T" unicode="T" horiz-adv-x="509" 
d="M475 700h50l-12 -11l-35 -32q-45 32 -100 32h-92v-571v-29q0 -56 45 -89h-156q44 32 48 86v603h-92q-55 0 -100 -32l-35 32l-12 11h28h463z" />
    <glyph glyph-name="U" unicode="U" horiz-adv-x="641" 
d="M508 700h129q-53 -38 -59 -104v-322q0 -80 -21 -137.5t-57.5 -88.5t-78.5 -45t-92 -14q-61 0 -105.5 12t-84.5 41t-61 87.5t-21 144.5v323q0 62 -47 99q-2 2 -5 4h167q-2 -2 -5 -4q-47 -37 -47 -101v-47v-274q0 -139 62.5 -200t159.5 -61q43 0 79 10.5t71.5 37.5t55.5 81
t20 132v274v39q-2 72 -60 113z" />
    <glyph glyph-name="V" unicode="V" horiz-adv-x="631" 
d="M597 700h50q-75 -47 -107 -130l-214 -570h-41l-231 611q-21 55 -69 89h157q-19 -13 -25.5 -35t1.5 -43l214 -570l197 522q13 34 2.5 69.5t-40.5 56.5h106z" />
    <glyph glyph-name="W" unicode="W" horiz-adv-x="961" 
d="M820 700h157q-77 -48 -103 -135l-169 -565h-40l-206 634l-187 -634h-41l-185 617q-15 52 -59 83h157q-20 -14 -28 -37t-1 -47l163 -557l159 545q8 27 -1.5 53.5t-31.5 42.5h156q-19 -14 -27 -37.5t-1 -46.5l177 -560l155 516q7 25 4 48t-15.5 44.5t-32.5 35.5z" />
    <glyph glyph-name="X" unicode="X" horiz-adv-x="591" 
d="M520 82q33 -48 81 -82h-157q14 10 17 27.5t-7 32.5l-179 260l-148 -207q-19 -28 -13.5 -61t32.5 -52h-157q78 49 132 124l146 206l-201 292q-32 46 -76 78h156q-15 -11 -18 -29t8 -32l180 -261l147 208q19 28 13.5 61t-32.5 53h156q-77 -48 -129 -122l-148 -210z" />
    <glyph glyph-name="Y" unicode="Y" horiz-adv-x="604" 
d="M579 700h42q-76 -48 -129 -121l-165 -230v-252v-8q0 -56 45 -89h-156q44 32 48 86v242l-210 300q-29 42 -71 72h157q-17 -12 -20.5 -32t8.5 -36l191 -272l182 253q12 17 9 37t-20 32l-25 18h114z" />
    <glyph glyph-name="Z" unicode="Z" horiz-adv-x="511" 
d="M500 11l11 -11h1h-28h-490l442 689h-224h-53q-55 0 -100 -32l-35 32l-12 11h28h476l-440 -689h236h53q55 0 100 32z" />
    <glyph glyph-name="bracketleft" unicode="[" horiz-adv-x="250" 
d="M205 464q0 -106 -76 -132q76 -26 76 -133v-195q0 -78 28.5 -112t111.5 -34h29v-11h-29q-88 0 -119.5 37t-31.5 121v194q0 54 -25 90.5t-74 36.5h-45v11h45q49 0 74 36.5t25 90.5v194q0 84 31.5 121t119.5 37h29v-10h-29q-83 0 -111.5 -34t-28.5 -113v-195z" />
    <glyph glyph-name="backslash" unicode="\" horiz-adv-x="520" 
d="M61 784l409 -1023h-11l-409 1023h11z" />
    <glyph glyph-name="bracketright" unicode="]" horiz-adv-x="250" 
d="M154 337h45v-11h-45q-49 0 -74 -36.5t-25 -90.5v-194q0 -84 -31.5 -121t-119.5 -37h-29v11h29q83 0 111.5 34t28.5 112v195q0 107 77 133q-77 26 -77 132v195q0 79 -28.5 113t-111.5 34h-29v10h29q88 0 119.5 -37t31.5 -121v-194q0 -54 25 -90.5t74 -36.5z" />
    <glyph glyph-name="underscore" unicode="_" horiz-adv-x="543" 
d="M497 -88h-452v11h452v-11z" />
    <glyph glyph-name="a" unicode="a" horiz-adv-x="446" 
d="M438 5h-107v21q-53 -23 -113 -23q-40 0 -81.5 12t-68.5 33q-57 45 -57 108t56 107q25 19 86 36q-23 24 -23 64q0 73 58 111q32 21 68.5 21t66 -16t49 -47t19.5 -69v-255q0 -14 2.5 -27.5t7 -23.5t9.5 -19t10 -15t9 -10t6.5 -6zM262 474q-43 0 -72.5 -20.5t-40 -49
t-8 -57.5t18.5 -46q28 7 57 7h13q55 -1 101 -23v120q0 19 -7 33.5t-17.5 20.5t-20.5 10t-17 4zM324 41q3 2 7 5v206q-5 4 -6 5q-41 32 -101 34q-61 2 -102 -30q-53 -42 -49 -103q5 -68 62 -113q42 -33 95.5 -34.5t93.5 30.5z" />
    <glyph glyph-name="a" unicode="&#xe3;" horiz-adv-x="446" 
d="M438 5h-107v21q-53 -23 -113 -23q-40 0 -81.5 12t-68.5 33q-57 45 -57 108t56 107q25 19 86 36q-23 24 -23 64q0 73 58 111q32 21 68.5 21t66 -16t49 -47t19.5 -69v-255q0 -14 2.5 -27.5t7 -23.5t9.5 -19t10 -15t9 -10t6.5 -6zM262 474q-43 0 -72.5 -20.5t-40 -49
t-8 -57.5t18.5 -46q28 7 57 7h13q55 -1 101 -23v120q0 19 -7 33.5t-17.5 20.5t-20.5 10t-17 4zM324 41q3 2 7 5v206q-5 4 -6 5q-41 32 -101 34q-61 2 -102 -30q-53 -42 -49 -103q5 -68 62 -113q42 -33 95.5 -34.5t93.5 30.5z" />
    <glyph glyph-name="a" unicode="&#xe1;" horiz-adv-x="446" 
d="M438 5h-107v21q-53 -23 -113 -23q-40 0 -81.5 12t-68.5 33q-57 45 -57 108t56 107q25 19 86 36q-23 24 -23 64q0 73 58 111q32 21 68.5 21t66 -16t49 -47t19.5 -69v-255q0 -14 2.5 -27.5t7 -23.5t9.5 -19t10 -15t9 -10t6.5 -6zM262 474q-43 0 -72.5 -20.5t-40 -49
t-8 -57.5t18.5 -46q28 7 57 7h13q55 -1 101 -23v120q0 19 -7 33.5t-17.5 20.5t-20.5 10t-17 4zM324 41q3 2 7 5v206q-5 4 -6 5q-41 32 -101 34q-61 2 -102 -30q-53 -42 -49 -103q5 -68 62 -113q42 -33 95.5 -34.5t93.5 30.5z" />
    <glyph glyph-name="b" unicode="b" horiz-adv-x="557" 
d="M466 430q72 -73 72 -176q1 -103 -73 -177q-34 -34 -92.5 -54t-112.5 -20q-76 0 -139 43v-41h-115l6 4q49 39 49 105v536q0 66 -49 105q-3 2 -6 5h167q-2 -2 -5 -4q-47 -37 -47 -100v-197q64 43 141 43q54 0 112 -19.5t92 -52.5zM464 258q1 21 -1 42t-7 40.5t-13 37.5
t-18.5 33.5t-23.5 28.5q-53 53 -131 50q-77 -3 -131 -57q-9 -9 -18 -20v-325q9 -13 20 -23q51 -52 120 -50t124 57q74 74 79 186z" />
    <glyph glyph-name="c" unicode="c" horiz-adv-x="512" 
d="M440 99l2 3h58l-8 -10q-8 -10 -16 -18q-35 -34 -92.5 -54t-111.5 -20q-105 0 -179 74q-75 75 -75 180q0 104 74 178t178 74q35 0 72.5 -8.5t73 -25.5t59.5 -40q10 -11 19 -23l8 -10h-59l-2 3q-12 15 -25 29q-53 52 -128 55q-78 4 -129 -48q-22 -22 -36.5 -50t-21 -61.5
t-5.5 -68.5q6 -111 79 -184q54 -53 121.5 -55t117.5 48q15 14 26 32z" />
    <glyph glyph-name="d" unicode="d" horiz-adv-x="566" 
d="M508 106q0 -17 12 -42.5t23 -42l11 -16.5h-107v47q-32 -24 -69.5 -36.5t-78.5 -12.5q-54 0 -113.5 20t-93.5 54q-42 41 -60.5 95.5t-11.5 113.5q9 68 52 122q34 43 99 68.5t126 25.5h1q83 0 149 -49v197q0 66 -48 105q-3 2 -7 5h116v-654zM447 114v289h-1v1
q-12 16 -26 29q-53 54 -130 57q-79 3 -131 -50q-33 -33 -50 -80.5t-14 -101.5q6 -112 80 -186q55 -55 123.5 -57t120.5 50l28 34v15z" />
    <glyph glyph-name="e" unicode="e" horiz-adv-x="535" 
d="M363 498q36 -7 64 -21.5t43 -32t25 -37t13 -37.5t3.5 -32.5t-1 -23l-1.5 -8.5h-38q8 -15 15 -35t12.5 -49.5t-0.5 -64t-26 -64.5q-7 -11 -16.5 -22t-25 -25t-37.5 -24.5t-47 -14.5q-1 0 -4 -0.5t-8 -1t-8 -0.5q-36 -3 -78.5 2.5t-83 22t-65.5 39.5l-7 7q-41 41 -60 96
t-12 113q8 69 52 124q34 43 100 69t127 26h1q40 0 63 -6zM162 439q-48 -47 -60 -122h365q-2 35 -11 63t-21 45.5t-29 30.5t-30.5 18.5t-30.5 9t-24.5 4t-16.5 0.5h-3q-39 2 -77 -11t-62 -38zM463 99q19 31 23.5 65.5t-4.5 65t-16.5 47t-15.5 29.5h-350q-2 -24 -1 -48
q5 -112 79 -185q48 -49 109 -55q18 -2 42 0q52 5 90 34q26 19 44 47z" />
    <glyph glyph-name="e" unicode="&#xe9;" horiz-adv-x="535" 
d="M363 498q36 -7 64 -21.5t43 -32t25 -37t13 -37.5t3.5 -32.5t-1 -23l-1.5 -8.5h-38q8 -15 15 -35t12.5 -49.5t-0.5 -64t-26 -64.5q-7 -11 -16.5 -22t-25 -25t-37.5 -24.5t-47 -14.5q-1 0 -4 -0.5t-8 -1t-8 -0.5q-36 -3 -78.5 2.5t-83 22t-65.5 39.5l-7 7q-41 41 -60 96
t-12 113q8 69 52 124q34 43 100 69t127 26h1q40 0 63 -6zM162 439q-48 -47 -60 -122h365q-2 35 -11 63t-21 45.5t-29 30.5t-30.5 18.5t-30.5 9t-24.5 4t-16.5 0.5h-3q-39 2 -77 -11t-62 -38zM463 99q19 31 23.5 65.5t-4.5 65t-16.5 47t-15.5 29.5h-350q-2 -24 -1 -48
q5 -112 79 -185q48 -49 109 -55q18 -2 42 0q52 5 90 34q26 19 44 47z" />
    <glyph glyph-name="f" unicode="f" horiz-adv-x="218" 
d="M238 772q118 0 154 -90h-52q-2 3 -4 10q-10 21 -15.5 30.5t-16 20.5t-26.5 15t-40 4q-67 0 -92.5 -41.5t-25.5 -129.5v-100h101v-11h-101v-366q0 -13 2 -23q8 -51 48 -82q2 -2 5 -4h-167q3 2 5 4q44 34 47 93v379h-39v10h39v101q0 82 48.5 131t129.5 49z" />
    <glyph glyph-name="g" unicode="g" horiz-adv-x="470" 
d="M420 13.5q35 -35.5 35 -82.5q0 -60 -59.5 -106t-155.5 -46q-78 0 -120 30.5t-42 81.5q0 78 90 104q-143 -5 -143 83q0 34 30 56q14 10 32 16q-57 61 -57 144q0 87 61.5 148.5t148.5 61.5q51 0 96 -23q21 61 81 85l2 1v-55q-3 -1 -10 -4q-45 -20 -56 -37q45 -29 70.5 -76
t25.5 -101q0 -87 -61.5 -148.5t-147.5 -61.5q-57 0 -121 40l-8 5q-7 5 -15 12q-11 -4 -18 -9q-19 -14 -19 -31q0 -52 80 -52h167q79 0 114 -35.5zM72 334q0 -84 62.5 -151.5t141.5 -67.5q58 0 94.5 39.5t36.5 100.5q0 84 -62.5 151.5t-140.5 67.5q-58 0 -95 -39t-37 -101z
M373 -171.5q43 39.5 43 86.5q0 80 -127 80h-91q-109 -26 -109 -103q0 -48 39 -75.5t115 -27.5q87 0 130 39.5z" />
    <glyph glyph-name="h" unicode="h" horiz-adv-x="512" 
d="M345 9q44 34 47 92v241q0 70 -27.5 110t-101.5 40q-68 0 -106.5 -40.5t-38.5 -120.5v-165v-52q0 -13 2 -23q9 -51 48 -82q2 -2 5 -4h-167q3 2 5 4q44 34 47 92v498v52q0 13 -2 23q-8 51 -47 82q-3 2 -6 5h115v-357q33 99 152 99q105 0 143.5 -44t38.5 -135v-158v-52
q0 -13 2 -23q8 -51 47 -82l6 -4h-167q3 2 5 4z" />
    <glyph glyph-name="i" unicode="i" horiz-adv-x="185" 
d="M171 23q2 -2 5 -4h-167q3 2 5 4q44 34 47 93v226v52q0 13 -2 23q-8 51 -47 82l-6 4h167q-2 -2 -5 -4q-44 -34 -47 -93v-278q0 -13 2 -23q9 -51 48 -82zM90 581q-18 0 -30.5 12.5t-12.5 30.5t12.5 30.5t30.5 12.5t30.5 -12.5t12.5 -30.5t-12.5 -30.5t-30.5 -12.5z" />
    <glyph glyph-name="j" unicode="j" horiz-adv-x="183" 
d="M122 489h52q-2 -2 -5 -4q-44 -34 -47 -93v-64v-386q0 -74 -42 -118.5t-117 -44.5q-107 0 -139 90h11q16 -41 52 -60.5t76 -19.5q45 0 72 36t27 113v442q0 13 -2 23q-8 51 -47 82l-6 4h115zM90 567q-18 0 -30.5 12.5t-12.5 30.5t12.5 30.5t30.5 12.5t30.5 -12.5
t12.5 -30.5t-12.5 -30.5t-30.5 -12.5z" />
    <glyph glyph-name="k" unicode="k" horiz-adv-x="490" 
d="M393 135q33 -81 101 -130h1h-157q14 10 19 26t-2 32l-107 265l-130 -103v-111q0 -13 2 -23q9 -51 48 -82q2 -2 5 -4h-167q3 1 5 3q44 35 47 94v64v431v52q0 13 -2 23q-8 51 -47 82l-6 4h167q-2 -1 -5 -3q-44 -35 -47 -93v-420l264 207q19 15 20.5 39t-17.5 40l-3 3h124
l-210 -166z" />
    <glyph glyph-name="l" unicode="l" horiz-adv-x="322" 
d="M310 84h10q-30 -91 -136 -91q-148 0 -148 155v231v243q0 13 -2 22q-8 51 -47 82q-3 3 -6 5h167q-2 -2 -5 -4q-44 -35 -47 -93v-255v-233q0 -68 18 -105t70 -37q98 0 126 80z" />
    <glyph glyph-name="m" unicode="m" horiz-adv-x="851" 
d="M841 9l6 -4h-55h-61h-52l6 4q43 34 46 93v64v174q0 70 -27.5 110t-101.5 40q-68 0 -106 -41t-38 -120v-163v-52q0 -13 1 -23q9 -51 48 -82l6 -4h-55h-61h-51q2 2 5 4q44 34 46 93v238q0 70 -27 110t-102 40q-68 0 -106 -41q-35 -37 -38 -109v-12v-214q0 -13 2 -23
q8 -51 47 -82l6 -4h-167q2 2 5 4q44 34 47 93v290q-1 6 -2 11q-8 51 -47 82l-6 4h115v-87q32 99 152 99q84 0 125.5 -29t51.5 -89q25 118 157 118q104 0 143 -44t39 -135v-208q0 -13 1 -23q9 -51 48 -82z" />
    <glyph glyph-name="n" unicode="n" horiz-adv-x="518" 
d="M507 9l6 -4h-55h-60h-52q3 2 5 4q44 34 47 93v238q0 70 -27.5 110t-101.5 40q-68 0 -107 -41q-37 -40 -38 -119v-2v-215q0 -13 2 -22q8 -51 48 -82q2 -2 5 -4h-55h-60h-52q3 2 5 4q44 34 47 93v64v217q0 11 -2 20q-8 51 -47 82l-6 4h115v-87q33 99 152 99
q105 0 143.5 -44t38.5 -135v-156v-52q0 -13 2 -23q8 -51 47 -82z" />
    <glyph glyph-name="o" unicode="o" horiz-adv-x="544" 
d="M272 502q105 0 179.5 -75t74.5 -180t-75 -180t-180 -75q-104 0 -178.5 75t-74.5 180t74.5 180t179.5 75zM321 19q35 0 65.5 14t51 38t32 57t11.5 71q0 34 -9 67.5t-26.5 64.5t-42.5 58q-25 26 -54 44.5t-59.5 28t-60.5 9.5q-72 0 -116.5 -51t-44.5 -129q0 -50 20.5 -99.5
t58.5 -89.5q37 -40 82.5 -61.5t91.5 -21.5z" />
    <glyph glyph-name="p" unicode="p" horiz-adv-x="567" 
d="M475 417q74 -74 73 -178q0 -102 -72 -175q-34 -33 -93.5 -53t-113.5 -20q-84 0 -150 50v-197q0 -66 49 -106l6 -4h-170l6 4q48 39 49 104v543q0 63 -47 100l-1 1q-1 0 -0.5 1.5t1.5 1.5h107v-47q66 48 148 48q54 0 114 -19.5t94 -53.5zM408 53q33 33 49.5 81t13.5 102
q-6 112 -80 186q-54 54 -123 56t-121 -49q-14 -14 -26 -33l-1 -1h-1v-304h1l1 -1q11 -16 25 -30q53 -53 130 -56q79 -3 132 49z" />
    <glyph glyph-name="q" unicode="q" horiz-adv-x="567" 
d="M557 -262q3 -2 5 -4h-170l6 4q49 40 49 106v197q-32 -24 -70.5 -37t-78.5 -13h-1q-53 0 -113 20t-93 53q-73 73 -73 175q0 104 74 178q34 34 93.5 53.5t113.5 19.5q83 0 148 -48v47h107q1 0 1.5 -1.5t-0.5 -1.5v-1q-47 -37 -47 -100v-543q0 -65 49 -104zM446 91h1v304h-1
l-1 1q-12 19 -26 33q-52 51 -121 49t-123 -56q-74 -74 -80 -186q-3 -54 14 -102t50 -81q52 -52 131 -49q77 3 130 56q14 14 26 30v1z" />
    <glyph glyph-name="r" unicode="r" horiz-adv-x="366" 
d="M124 351q13 20 26 36.5t24 29t23.5 22t21.5 16.5t22.5 12t22 8t24 5.5t24 3.5t26.5 3t28 3v-57q-34 1 -61.5 -2t-61 -13t-63.5 -33t-56 -58v-213q0 -13 2 -23q9 -51 48 -82q2 -2 5 -4h-167q3 2 5 4q44 34 47 93v64v162v52q0 13 -2 23q-8 51 -47 82l-6 4h115v-138z" />
    <glyph glyph-name="s" unicode="s" horiz-adv-x="431" 
d="M265 289q72 0 108.5 -35t36.5 -88q0 -71 -55.5 -121.5t-140.5 -50.5q-80 0 -130.5 27.5t-64.5 81.5l71 45q4 -28 7.5 -45t12.5 -38t21 -32.5t33 -19.5t50 -8q73 0 111 39.5t38 96.5q0 84 -107 84h-89q-72 0 -105 35.5t-33 86.5q0 71 52.5 112t128.5 41q67 0 115 -26
q59 -31 74 -81l-71 -44q-2 57 -40 98.5t-78 41.5q-67 0 -104 -30.5t-37 -82.5q0 -87 106 -87h90z" />
    <glyph glyph-name="t" unicode="t" horiz-adv-x="339" 
d="M326 84h11q-30 -91 -137 -91q-147 0 -147 155v331h-41v10h41v19q0 55 -39 90q-3 2 -5.5 4.5t-5.5 4.5h110l-1 -118h101v-10h-100v-333q0 -68 18 -105t69 -37q98 0 126 80z" />
    <glyph glyph-name="u" unicode="u" horiz-adv-x="514" 
d="M461 61q12 -32 37 -52l6 -4h-52h-60v87l-6 -16q-37 -83 -146 -83q-105 0 -143.5 44t-38.5 135v227q-7 54 -46 86l-6 4h164q-3 -2 -5 -4q-26 -21 -38 -52q-9 -22 -9 -50v-229q0 -70 27.5 -110t101.5 -40q68 0 106.5 40.5t38.5 120.5v219q0 27 -9 49q-12 32 -38 52
q-2 2 -5 4h164l-6 -4q-25 -20 -37 -52q-9 -22 -9 -49v-274q0 -27 9 -49z" />
    <glyph glyph-name="v" unicode="v" horiz-adv-x="485" 
d="M452 489h38l-6 -4q-45 -30 -65 -75l-163 -405h-42l-165 407l-1 1l-7 17q-12 31 -34 51q-6 4 -11 8h134v0q-16 -11 -21 -30.5t3 -37.5l149 -370l135 334q11 26 4.5 54.5t-28.5 46.5q-2 2 -5 3h85z" />
    <glyph glyph-name="w" unicode="w" horiz-adv-x="718" 
d="M676 489h48q-4 -2 -7 -4q-53 -36 -71 -101l-107 -379h-41l-155 433l-131 -433h-43l-130 424q-11 38 -42 60h135q-2 -1 -4 -3q-15 -12 -20 -30.5t0 -36.5l107 -363l109 360q6 21 -0.5 41t-23.5 32h134q-2 -1 -4 -3q-14 -12 -18.5 -30.5t2.5 -35.5l128 -361l95 336q2 5 2 8
q3 25 -7.5 48t-30.5 38h75z" />
    <glyph glyph-name="x" unicode="x" horiz-adv-x="454" 
d="M397 61q14 -19 27.5 -32t28.5 -24h-122h1q9 6 10 17.5t-5 20.5l-128 177l-80 -110q-24 -32 -12 -68q7 -23 28 -37h-145q37 23 70 55q22 21 43 50l87 120l-153 211q-20 28 -48 48h121q-9 -7 -11 -18.5t5 -21.5l128 -178l82 113q17 24 14 53.5t-25 48.5q-2 2 -5 3h147
q-70 -43 -118 -109l-6 -9l-9 -13l-70 -97l134 -186h1z" />
    <glyph glyph-name="y" unicode="y" horiz-adv-x="485" 
d="M452 489h38l-6 -4q-45 -30 -65 -75l-163 -405q-23 -56 -48.5 -99t-48.5 -66t-45.5 -38t-40.5 -19t-32 -4.5t-21 1.5l-8 2l12 67q22 -22 45.5 -25.5t44.5 9t41 32.5t35.5 44.5t27.5 45.5t19 35l6 15h-29l-165 407l-1 1l-7 17q-12 31 -34 51q-6 4 -11 8h134v0
q-16 -11 -21 -30.5t3 -37.5l149 -370l135 334q11 26 4.5 54.5t-28.5 46.5q-2 2 -5 3h85z" />
    <glyph glyph-name="z" unicode="z" horiz-adv-x="378" 
d="M358 15l11 -10h-22h-347l300 474h-128v-1h-6q-55 0 -100 -32l-35 32l-12 11h28h329l-298 -474h138h6q56 0 101 33z" />
    <glyph glyph-name="braceleft" unicode="{" horiz-adv-x="102" 
d="M256 806h-200v-949h200v-11h-211v970h211v-10z" />
    <glyph glyph-name="braceright" unicode="}" horiz-adv-x="102" 
d="M-155 816h211v-970h-211v11h200v949h-200v10z" />
    <glyph glyph-name="asciitilde" unicode="~" horiz-adv-x="473" 
d="M450 351l10 -4q-27 -50 -65.5 -64.5t-76.5 -2.5q-27 9 -85 47.5t-80 45.5q-80 25 -129 -61l-10 4q27 51 65.5 65t76.5 2q27 -8 84.5 -46.5t80.5 -46.5q80 -25 129 61z" />
    <glyph glyph-name="nonbreakingspace" unicode="&#xa0;" horiz-adv-x="335" 
 />
    <glyph glyph-name="cent" unicode="&#xa2;" horiz-adv-x="522" 
d="M445 173l2 2h58l-8 -10l-16 -18q-35 -34 -92.5 -54t-111.5 -20h-1v-94h-11v95q-98 4 -167 74q-75 75 -75 180q0 104 74 177q69 70 168 74v97h11v-97q54 0 111.5 -20t92.5 -54q10 -10 19 -22l8 -10h-60l-1 2q-12 16 -25 29q-53 53 -128 56h-17v-465q82 -16 143 46
q15 14 26 32zM265 97v462q-60 -6 -101 -48q-22 -21 -36.5 -49.5t-21 -61.5t-5.5 -69q6 -110 79 -183q38 -38 85 -51z" />
    <glyph glyph-name="sterling" unicode="&#xa3;" horiz-adv-x="651" 
d="M601 -24h-27h-461l-1 3q163 71 163 180q0 64 -61 168h-164v12h158q-16 26 -38 57q-43 63 -41 131q0 76 50 119.5t132 43.5q44 0 70 -9q13 -3 27 -9q22 -8 42 -20q52 -34 77 -94h-90q-2 4 -10.5 27t-15 35.5t-20 28.5t-30.5 22q-8 3 -19 4q-13 1 -27 1q-61 0 -95.5 -31.5
t-34.5 -90.5q0 -68 45 -128q33 -46 56 -87h180v-12h-174q34 -69 33 -128q0 -137 -165 -212h242h53q55 0 100 32l35 -32z" />
    <glyph glyph-name="yen" unicode="&#xa5;" horiz-adv-x="738" 
d="M559 553l-165 -235v-78h183v-12h-183v-43h183v-12h-183v-114v-8q0 -57 45 -91h-156q44 33 48 89v124h-170v12h170v43h-170v12h170v57l-210 306q-29 43 -71 74h157q-17 -12 -20.5 -32.5t8.5 -37.5l191 -278l182 259q12 17 9 37.5t-20 32.5l-25 19h156q-76 -49 -129 -124z
" />
    <glyph glyph-name="copyright" unicode="&#xa9;" horiz-adv-x="789" 
d="M656.5 589q102.5 -103 102.5 -262.5t-102.5 -263t-262 -103.5t-262.5 103.5t-103 263t103 262.5t262.5 103t262 -103zM641.5 78.5q96.5 96.5 96.5 248t-96.5 248t-247.5 96.5t-247 -96.5t-96 -248t96 -248t247 -96.5t247.5 96.5zM422 560q-78 3 -129 -49q-33 -32 -49 -79
t-14 -101q6 -110 79 -183q54 -54 121.5 -56t117.5 49q14 14 26 32l2 2h58l-8 -10q-8 -9 -17 -18q-34 -34 -91.5 -54t-111.5 -20q-105 0 -179 75q-75 75 -75 180q0 104 74 177q74 74 178 74q35 0 72.5 -8.5t73 -25.5t58.5 -40q11 -10 20 -22l8 -10h-60l-1 2q-12 16 -25 29
q-53 53 -128 56z" />
    <glyph glyph-name="softhyphen" unicode="&#xad;" horiz-adv-x="0" 
 />
    <glyph glyph-name="registered" unicode="&#xae;" horiz-adv-x="789" 
d="M656.5 589q102.5 -103 102.5 -262.5t-102.5 -263t-262 -103.5t-262.5 103.5t-103 263t103 262.5t262.5 103t262 -103zM641.5 78.5q96.5 96.5 96.5 248t-96.5 248t-247.5 96.5t-247 -96.5t-96 -248t96 -248t247 -96.5t247.5 96.5zM543 247q-33 -37 -82 -48l60 -83
q29 -40 69 -69h-125q12 9 14.5 23.5t-6.5 26.5l-70 98h-98v-77q0 -45 36 -71h-125q39 28 39 76v407q0 48 -39 76h201q79 0 126 -52.5t47 -153.5t-47 -153zM417 206q20 0 38.5 4.5t34 14t23.5 23.5q27 41 27 136v32q0 96 -27 137q-13 20 -39 30.5t-57 10.5h-112v-388h112z
" />
    <glyph glyph-name="Agrave" unicode="&#xc0;" 
d="M494 88q20 -52 65 -84h-157q19 13 26 36t-2 45l-53 142h-1l-4 10h1l-10 25h-216l-63 -168q-9 -23 -4.5 -47.5t20.5 -42.5h-107l25 17q34 25 49 65l181 480l-52 138h27h42zM147 272h208l-104 276zM206 832q-23 13 -23 30q0 10 7 16.5t16 6.5q15 0 30 -18l83 -96h-8z" />
    <glyph glyph-name="Aacute" unicode="&#xc1;" 
d="M494 88q20 -52 65 -84h-157q19 13 26 36t-2 45l-53 142h-1l-4 10h1l-10 25h-216l-63 -168q-9 -23 -4.5 -47.5t20.5 -42.5h-107l25 17q34 25 49 65l181 480l-52 138h27h42zM147 272h208l-104 276zM292 832l-105 -61h-9l83 96q15 18 30 18q9 0 16 -6.5t7 -16.5
q0 -17 -22 -30z" />
    <glyph glyph-name="Acircumflex" unicode="&#xc2;" 
d="M494 88q20 -52 65 -84h-157q19 13 26 36t-2 45l-53 142h-1l-4 10h1l-10 25h-216l-63 -168q-9 -23 -4.5 -47.5t20.5 -42.5h-107l25 17q34 25 49 65l181 480l-52 138h27h42zM147 272h208l-104 276zM251 831l-100 -60h-9l105 114h8l105 -114h-9z" />
    <glyph glyph-name="Atilde" unicode="&#xc3;" 
d="M494 88q20 -52 65 -84h-157q19 13 26 36t-2 45l-53 142h-1l-4 10h1l-10 25h-216l-63 -168q-9 -23 -4.5 -47.5t20.5 -42.5h-107l25 17q34 25 49 65l181 480l-52 138h27h42zM147 272h208l-104 276zM132 801q-7 -9 -12 -24l-8 3q27 90 87 70q16 -6 46.5 -25.5t45.5 -24.5
q8 -3 14.5 -3.5t14.5 1.5t15 11.5t12 24.5l9 -3q-15 -49 -36.5 -64.5t-50.5 -5.5q-15 5 -45.5 24.5t-46.5 25.5q-9 2 -15 2.5t-14.5 -1.5t-15.5 -11z" />
    <glyph glyph-name="Adieresis" unicode="&#xc4;" 
d="M494 88q20 -52 65 -84h-157q19 13 26 36t-2 45l-53 142h-1l-4 10h1l-10 25h-216l-63 -168q-9 -23 -4.5 -47.5t20.5 -42.5h-107l25 17q34 25 49 65l181 480l-52 138h27h42zM147 272h208l-104 276zM170.5 766q-17.5 0 -27.5 11.5t-10 27.5t10 27.5t27.5 11.5t27.5 -11.5
t10 -27.5t-10 -27.5t-27.5 -11.5zM332 766q-17 0 -27.5 11.5t-10.5 27.5t10.5 27.5t27.5 11.5t27.5 -11.5t10.5 -27.5t-10.5 -27.5t-27.5 -11.5z" />
    <glyph glyph-name="Aring" unicode="&#xc5;" 
d="M494 88q20 -52 65 -84h-157q19 13 26 36t-2 45l-53 142h-1l-4 10h1l-10 25h-216l-63 -168q-9 -23 -4.5 -47.5t20.5 -42.5h-107l25 17q34 25 49 65l181 480l-52 138h27h42zM147 272h208l-104 276zM224.5 756q-24.5 0 -41.5 17t-17 42t17 42t41.5 17t42 -17t17.5 -42
t-17.5 -42t-42 -17zM225 864q-20 0 -34.5 -14.5t-14.5 -34.5t14.5 -34.5t34.5 -14.5t34.5 14.5t14.5 34.5t-14.5 34.5t-34.5 14.5z" />
    <glyph glyph-name="AE" unicode="&#xc6;" 
d="M538 14l12 -10h-53h-318q28 20 43.5 50.5t15.5 65.5v142h-95l-63 -168q-9 -23 -4.5 -47.5t20.5 -42.5h-107l25 17q34 25 49 65l175 465v37q0 34 -15.5 65t-43.5 51l371 -1l-12 -10l-35 -32q-45 32 -100 32h-102v-211h190v-11h-190v-457h102q55 0 100 33zM238 272v242
l-91 -242h91z" />
    <glyph glyph-name="Ccedilla" unicode="&#xc7;" horiz-adv-x="667" 
d="M594 126l1 1h66l-2 -3q-12 -14 -24 -26q-52 -52 -118 -79t-137 -27h-3h-2v-22h-1q-16 -8 -26.5 -16.5t-15 -17.5t-5.5 -16.5t0 -16.5q1 -13 10 -28q8 -10 20 -11q5 0 8 1q8 4 15 22q1 3 2 5l1 1h26l-1 -3q-7 -15 -20 -24q-5 -3 -10 -5q-9 -3 -17 -3q-2 -1 -4 -1
q-20 0 -35 11q-18 11 -21 29q-3 26 17 46q23 23 45 32l3 17q-142 6 -243 106q-52 52 -79.5 118.5t-27.5 139.5q0 72 27.5 137.5t78.5 116.5q69 69 162 93.5t186.5 0t163.5 -94.5q14 -15 28 -32l3 -3h-70v1q-17 23 -37 43q-38 37 -88 58.5t-104 24.5q-115 4 -192 -73
q-49 -48 -73 -118t-20 -149q4 -78 34.5 -149.5t82.5 -123.5q80 -80 181 -83t177 73q21 21 38 48z" />
    <glyph glyph-name="Egrave" unicode="&#xc8;" horiz-adv-x="381" 
d="M370 14l12 -10h-53h-318q28 20 43.5 50.5t15.5 65.5v468q0 34 -15.5 65t-43.5 51l371 -1l-12 -10l-35 -32q-45 32 -101 32h-101v-211h190v-11h-190v-457h102q55 0 100 33zM172 832q-22 13 -22 30q0 10 7 16.5t16 6.5q15 0 30 -18l83 -96h-9z" />
    <glyph glyph-name="Eacute" unicode="&#xc9;" horiz-adv-x="381" 
d="M273 832l-105 -61h-8l82 96q15 18 30 18q9 0 16.5 -6.5t7.5 -16.5q0 -17 -23 -30zM370 14l12 -10h-53h-318q28 20 43.5 50.5t15.5 65.5v468q0 34 -15.5 65t-43.5 51l371 -1l-12 -10l-35 -32q-45 32 -101 32h-101v-211h190v-11h-190v-457h102q55 0 100 33z" />
    <glyph glyph-name="Ecircumflex" unicode="&#xca;" horiz-adv-x="381" 
d="M370 14l12 -10h-53h-318q28 20 43.5 50.5t15.5 65.5v468q0 34 -15.5 65t-43.5 51l371 -1l-12 -10l-35 -32q-45 32 -101 32h-101v-211h190v-11h-190v-457h102q55 0 100 33zM196 831l-100 -60h-8l104 114h8l105 -114h-8z" />
    <glyph glyph-name="Edieresis" unicode="&#xcb;" horiz-adv-x="381" 
d="M370 14l12 -10h-53h-318q28 20 43.5 50.5t15.5 65.5v468q0 34 -15.5 65t-43.5 51l371 -1l-12 -10l-35 -32q-45 32 -101 32h-101v-211h190v-11h-190v-457h102q55 0 100 33zM113.5 766q-17.5 0 -27.5 11.5t-10 27.5t10 27.5t27.5 11.5t27.5 -11.5t10 -27.5t-10 -27.5
t-27.5 -11.5zM275 766q-17 0 -27.5 11.5t-10.5 27.5t10.5 27.5t27.5 11.5t27.5 -11.5t10.5 -27.5t-10.5 -27.5t-27.5 -11.5z" />
    <glyph glyph-name="Igrave" unicode="&#xcc;" horiz-adv-x="194" 
d="M128 108q0 -63 47 -100q3 -2 5 -4h-167q3 1 5 4q47 37 47 100v491q0 63 -47 101q-2 2 -5 4h167q-2 -2 -5 -4q-47 -38 -47 -101v-491zM51 832q-22 13 -22 30q0 10 7 16.5t16 6.5q15 0 30 -18l83 -96h-9z" />
    <glyph glyph-name="Iacute" unicode="&#xcd;" horiz-adv-x="194" 
d="M128 108q0 -63 47 -100q3 -2 5 -4h-167q3 1 5 4q47 37 47 100v491q0 63 -47 101q-2 2 -5 4h167q-2 -2 -5 -4q-47 -38 -47 -101v-491zM142 832l-105 -61h-8l83 96q14 18 29 18q10 0 17 -6.5t7 -16.5q0 -17 -23 -30z" />
    <glyph glyph-name="Icircumflex" unicode="&#xce;" horiz-adv-x="194" 
d="M175 700q-47 -38 -47 -101v-491q0 -63 47 -100q3 -2 5 -4h-167q3 1 5 4q47 37 47 100v491q0 63 -47 101q-2 2 -5 4h167q-2 -2 -5 -4zM101 885l104 -114h-8l-100 60l-101 -60h-8l104 114h9z" />
    <glyph glyph-name="Idieresis" unicode="&#xcf;" horiz-adv-x="193" 
d="M175 700q-47 -38 -47 -101v-491q0 -63 47 -100q2 -2 5 -4h-167q2 1 5 4q47 37 47 100v491q0 63 -47 101q-3 2 -5 4h167q-3 -2 -5 -4zM43 777.5q-10 -11.5 -27.5 -11.5t-27.5 11.5t-10 27.5t10 27.5t27.5 11.5t27.5 -11.5t10 -27.5t-10 -27.5zM204.5 832.5
q10.5 -11.5 10.5 -27.5t-10.5 -27.5t-27.5 -11.5t-27 11.5t-10 27.5t10 27.5t27 11.5t27.5 -11.5z" />
    <glyph glyph-name="Eth" unicode="&#xd0;" horiz-adv-x="699" 
d="M657 497q21 -63 21 -143.5t-21 -143.5t-53.5 -101.5t-79 -62.5t-91.5 -33t-96 -9h-263q28 20 44 50.5t16 64.5v229h-138v12h138v228q0 34 -16 65t-44 51h263q51 0 96 -9.5t91.5 -33.5t79 -62.5t53.5 -101.5zM602 299v110q0 78 -22 135.5t-61.5 89t-83.5 45.5t-96 14h-142
v-333h136v-12h-136v-334h142q52 0 96 14t83.5 45.5t61.5 89t22 136.5z" />
    <glyph glyph-name="Ntilde" unicode="&#xd1;" horiz-adv-x="642" 
d="M508 704h129q-44 -32 -56 -85q-3 -14 -3 -31v-584h-36l-451 637l-10 14v-542q3 -69 59 -109h-129q48 34 58 92q1 10 1 23v469q0 13 -1 23q-10 58 -58 93h122l435 -620v504q0 9 -1 14q-6 64 -59 102zM206 801q-7 -9 -12 -24l-9 3q28 90 87 70q17 -6 47 -25.5t45 -24.5
q9 -3 15.5 -3.5t14.5 1.5t15 11.5t12 24.5l8 -3q-15 -49 -36 -64.5t-51 -5.5q-15 5 -45 24.5t-47 25.5q-8 2 -14.5 2.5t-14.5 -1.5t-15 -11z" />
    <glyph glyph-name="Ograve" unicode="&#xd2;" horiz-adv-x="626" 
d="M313 718q124 0 211.5 -88t87.5 -212t-88 -212t-212 -88q-123 0 -210.5 88t-87.5 212t87.5 212t211.5 88zM351 145q86 0 149 66.5t63 157.5q0 82 -40 157t-107 119.5t-140 44.5q-42 0 -81.5 -18t-68 -48t-45.5 -71.5t-17 -85.5q0 -83 40 -157.5t106.5 -119.5t140.5 -45z
M313 76q18 0 30.5 -12.5t12.5 -30.5t-12.5 -30.5t-30.5 -12.5q-12 0 -22 6t-15.5 15.5t-5.5 21.5q0 18 12.5 30.5t30.5 12.5zM253 832q-22 13 -22 30q0 10 7 16.5t16 6.5q15 0 30 -18l83 -96h-9z" />
    <glyph glyph-name="Oacute" unicode="&#xd3;" horiz-adv-x="626" 
d="M313 76q18 0 30.5 -12.5t12.5 -30.5t-12.5 -30.5t-30.5 -12.5t-30.5 12.5t-12.5 30.5t12.5 30.5t30.5 12.5zM313 718q81 0 150 -40.5t109 -109.5t40 -150q0 -124 -88 -212t-212 -88q-123 0 -210.5 88t-87.5 212t87.5 212t211.5 88zM351 145q86 0 149 66.5t63 157.5
q0 62 -24 121t-63 103t-92 70.5t-108 26.5q-57 0 -106 -30t-77.5 -82t-28.5 -111q0 -83 40 -157.5t106.5 -119.5t140.5 -45zM358 832l-105 -61h-8l83 96q15 18 30 18q9 0 16 -6.5t7 -16.5q0 -17 -23 -30z" />
    <glyph glyph-name="Ocircumflex" unicode="&#xd4;" horiz-adv-x="626" 
d="M313 718q81 0 150 -40.5t109 -109.5t40 -150q0 -124 -88 -212t-212 -88q-123 0 -210.5 88t-87.5 212t87.5 212t211.5 88zM351 145q86 0 149 66.5t63 157.5q0 62 -24 121t-63 103t-92 70.5t-108 26.5q-57 0 -106 -30t-77.5 -82t-28.5 -111q0 -83 40 -157.5t106.5 -119.5
t140.5 -45zM313 76q18 0 30.5 -12.5t12.5 -30.5t-12.5 -30.5t-30.5 -12.5t-30.5 12.5t-12.5 30.5t12.5 30.5t30.5 12.5zM313 831l-100 -60h-8l104 114h8l105 -114h-8z" />
    <glyph glyph-name="Otilde" unicode="&#xd5;" horiz-adv-x="626" 
d="M313 718q124 0 211.5 -88t87.5 -212t-88 -212t-212 -88q-123 0 -210.5 88t-87.5 212t87.5 212t211.5 88zM351 145q86 0 149 66.5t63 157.5q0 82 -40 157t-107 119.5t-140 44.5q-43 0 -82 -18t-67.5 -48t-45.5 -71.5t-17 -85.5q0 -83 40 -157.5t106.5 -119.5t140.5 -45z
M313 76q18 0 30.5 -12.5t12.5 -30.5t-12.5 -30.5t-30.5 -12.5q-12 0 -22 6t-15.5 15.5t-5.5 21.5q0 18 12.5 30.5t30.5 12.5zM211 801q-7 -9 -12 -24l-8 3q27 90 87 70q16 -6 46.5 -25.5t45.5 -24.5q8 -3 14.5 -3.5t14.5 1.5t15 11.5t13 24.5l8 -3q-15 -49 -36.5 -64.5
t-50.5 -5.5q-15 5 -45.5 24.5t-46.5 25.5q-9 2 -15 2.5t-14.5 -1.5t-15.5 -11z" />
    <glyph glyph-name="Odieresis" unicode="&#xd6;" horiz-adv-x="626" 
d="M313 718q81 0 150 -40.5t109 -109.5t40 -150q0 -124 -88 -212t-212 -88q-123 0 -210.5 88t-87.5 212t87.5 212t211.5 88zM351 145q86 0 149 66.5t63 157.5q0 82 -40 157t-107 119.5t-140 44.5q-57 0 -106 -30t-77.5 -82t-28.5 -111q0 -83 40 -157.5t106.5 -119.5
t140.5 -45zM313 76q18 0 30.5 -12.5t12.5 -30.5t-12.5 -30.5t-30.5 -12.5t-30.5 12.5t-12.5 30.5t12.5 30.5t30.5 12.5zM232 766q-17 0 -27.5 11.5t-10.5 27.5t10.5 27.5t27.5 11.5t27.5 -11.5t10.5 -27.5t-10.5 -27.5t-27.5 -11.5zM393.5 766q-17.5 0 -27.5 11.5t-10 27.5
t10 27.5t27.5 11.5t27.5 -11.5t10 -27.5t-10 -27.5t-27.5 -11.5z" />
    <glyph glyph-name="multiply" unicode="&#xd7;" horiz-adv-x="379" 
d="M364 499l-167 -167l167 -167l-8 -8l-167 167l-166 -167l-8 8l167 167l-167 167l8 7l166 -167l167 167z" />
    <glyph glyph-name="Oslash" unicode="&#xd8;" horiz-adv-x="625" 
d="M465 676q67 -40 107 -108.5t40 -149.5q0 -124 -88 -212t-212 -88q-78 0 -146 39l-38 -65l-10 6l37 65q-65 40 -103 107.5t-38 147.5q0 124 87.5 212t211.5 88q76 0 142 -36l43 75l11 -6zM64 467q0 -74 32.5 -141.5t86.5 -114.5l245 425q-72 54 -152 54q-57 0 -106 -30
t-77.5 -82t-28.5 -111zM351 145q86 0 149 66.5t63 157.5q0 75 -34 144t-91 116l-245 -426q74 -58 158 -58zM313 76q18 0 30.5 -12.5t12.5 -30.5t-12.5 -30.5t-30.5 -12.5t-30.5 12.5t-12.5 30.5t12.5 30.5t30.5 12.5z" />
    <glyph glyph-name="Ugrave" unicode="&#xd9;" horiz-adv-x="636" 
d="M576 704h59q-53 -39 -59 -104v-323q0 -79 -21 -137t-57.5 -88.5t-78.5 -44.5t-92 -14q-61 0 -105.5 12t-84.5 41t-61 87.5t-21 143.5v324q0 62 -47 99q-2 2 -5 4h167q-2 -2 -5 -4q-47 -38 -47 -101v-47v-275q0 -139 62.5 -199.5t159.5 -60.5q43 0 79 10.5t71.5 37.5
t55.5 81t20 131v275v39q-2 71 -60 113h70zM274 832q-23 13 -23 30q0 10 7 16.5t16 6.5q15 0 30 -18l83 -96h-8z" />
    <glyph glyph-name="Uacute" unicode="&#xda;" horiz-adv-x="636" 
d="M576 704h59q-53 -39 -59 -104v-323q0 -79 -21 -137t-57.5 -88.5t-78.5 -44.5t-92 -14q-61 0 -105.5 12t-84.5 41t-61 87.5t-21 143.5v324q0 62 -47 99q-2 2 -5 4h167q-2 -2 -5 -4q-47 -38 -47 -101v-47v-275q0 -139 62.5 -199.5t159.5 -60.5q43 0 79 10.5t71.5 37.5
t55.5 81t20 131v275v39q-2 71 -60 113h70zM365 832l-106 -61h-8l83 96q15 18 30 18q9 0 16 -6.5t7 -16.5q0 -17 -22 -30z" />
    <glyph glyph-name="Ucircumflex" unicode="&#xdb;" horiz-adv-x="636" 
d="M576 704h59q-53 -39 -59 -104v-323q0 -79 -21 -137t-57.5 -88.5t-78.5 -44.5t-92 -14q-61 0 -105.5 12t-84.5 41t-61 87.5t-21 143.5v324q0 62 -47 99q-2 2 -5 4h167q-2 -2 -5 -4q-47 -38 -47 -101v-47v-275q0 -139 62.5 -199.5t159.5 -60.5q43 0 79 10.5t71.5 37.5
t55.5 81t20 131v275v39q-2 71 -60 113h70zM319 831l-100 -60h-8l104 114h8l105 -114h-9z" />
    <glyph glyph-name="Udieresis" unicode="&#xdc;" horiz-adv-x="636" 
d="M576 704h59q-53 -39 -59 -104v-323q0 -79 -21 -137t-57.5 -88.5t-78.5 -44.5t-92 -14q-61 0 -105.5 12t-84.5 41t-61 87.5t-21 143.5v324q0 62 -47 99q-2 2 -5 4h167q-2 -2 -5 -4q-47 -38 -47 -101v-47v-275q0 -139 62.5 -199.5t159.5 -60.5q43 0 79 10.5t71.5 37.5
t55.5 81t20 131v275v39q-2 71 -60 113h70zM238.5 766q-17.5 0 -27.5 11.5t-10 27.5t10 27.5t27.5 11.5t27.5 -11.5t10 -27.5t-10 -27.5t-27.5 -11.5zM400 766q-17 0 -27.5 11.5t-10.5 27.5t10.5 27.5t27.5 11.5t27.5 -11.5t10.5 -27.5t-10.5 -27.5t-27.5 -11.5z" />
    <glyph glyph-name="Yacute" unicode="&#xdd;" horiz-adv-x="594" 
d="M461 704h156q-76 -48 -129 -121l-165 -230v-252v-9q0 -56 45 -88h-156q44 32 48 86v242l-210 300q-29 42 -71 72h157q-17 -12 -20.5 -32t8.5 -37l191 -272l182 254q12 16 9 36.5t-20 31.5zM350 832l-105 -61h-8l83 96q15 18 30 18q9 0 16 -6.5t7 -16.5q0 -17 -23 -30z
" />
    <glyph glyph-name="Thorn" unicode="&#xde;" horiz-adv-x="494" 
d="M472 434q11 -34 11 -77q0 -74 -33 -121q-11 -16 -25 -29l-8 -6q-57 -45 -150 -45h-141v-61q2 -58 49 -91h-160q47 33 49 91v517q-2 58 -49 92h160q-47 -34 -49 -92v-55h141q37 0 69 -7q52 -12 89 -44q7 -6 13 -13q23 -25 34 -59zM421 341v32v11q-1 17 -2 32q-5 40 -17 66
q-6 14 -15 24q-16 19 -50 30q-32 10 -70 10h-141v-378h141q33 0 62 7q8 3 16 5q16 6 27 14q9 7 15 14q5 5 8 11q20 32 25 89q0 10 1 22v11z" />
    <glyph glyph-name="germandbls" unicode="&#xdf;" horiz-adv-x="577" 
d="M377 332q4 -2 12 -5q32 -14 49 -22t44.5 -26t42.5 -35.5t27 -45.5t12 -62q2 -44 -31 -82q-47 -50 -129 -50h-168h-28l12 10l35 33q45 -33 100 -33h23q45 0 85.5 10t61.5 32q13 16 18 31.5t4.5 28t-8.5 26.5t-16.5 24t-24.5 22t-28 19.5t-33 18.5t-32 16t-32 15
q-4 2 -15 7q-14 6 -21.5 9.5t-22 10.5t-23 12.5t-21.5 13.5t-20.5 16t-17 18t-14 20.5t-8 23t-3.5 27t4 29.5q7 20 26 38q9 8 23 17.5t25 16.5t24.5 16.5t21.5 18.5t15 22.5t6.5 29t-4.5 37.5q-9 30 -32 53t-52 32t-57.5 8t-50.5 -18t-28 -46q-8 -32 -8 -80v-477
q0 -13 2 -23q8 -51 48 -82l5 -5h-167q3 2 5 4q44 35 47 93v491q0 82 48.5 131t129.5 49q38 0 68 -10q59 -16 88 -65q19 -32 19 -59.5t-13 -46t-36 -36t-46 -29t-47 -26t-35 -25.5q-10 -11 -13.5 -22t0 -20.5t8.5 -18t17.5 -17.5t22.5 -15.5t27 -14t27.5 -12t27.5 -11.5
t24 -10z" />
    <glyph glyph-name="agrave" unicode="&#xe0;" horiz-adv-x="448" 
d="M438 4h-107v21q-53 -23 -113 -23q-40 0 -81.5 12t-68.5 33q-57 45 -57 108t56 107q25 19 86 36q-23 24 -23 64q0 73 58 111q32 21 68.5 21t66 -16t49 -47t19.5 -69v-255q0 -14 2.5 -27.5t7 -23.5t9.5 -19t10 -15t9 -10t6.5 -6zM262 473q-43 0 -72.5 -20.5t-40 -49
t-8 -57.5t18.5 -46q28 7 57 7h13q55 0 101 -23v120q0 19 -7 33.5t-17.5 21t-20.5 10t-17 3.5zM324 40q3 2 7 5v206q-5 4 -6 5q-41 32 -101 34q-61 2 -102 -30q-53 -42 -49 -103q5 -68 62 -113q42 -33 95.5 -34.5t93.5 30.5zM205 596q-19 11 -19 25q0 9 6 14.5t14 5.5
q12 0 25 -15l70 -81h-7z" />
    <glyph glyph-name="acircumflex" unicode="&#xe2;" horiz-adv-x="448" 
d="M438 4h-107v21q-53 -23 -113 -23q-40 0 -81.5 12t-68.5 33q-57 45 -57 108t56 107q25 19 86 36q-23 24 -23 64q0 73 58 111q32 21 68.5 21t66 -16t49 -47t19.5 -69v-255q0 -14 2.5 -27.5t7 -23.5t9.5 -19t10 -15t9 -10t6.5 -6zM262 473q-43 0 -72.5 -20.5t-40 -49
t-8 -57.5t18.5 -46q28 7 57 7h13q55 0 101 -23v120q0 19 -7 33.5t-17.5 21t-20.5 10t-17 3.5zM324 40q3 2 7 5v206q-5 4 -6 5q-41 32 -101 34q-61 2 -102 -30q-53 -42 -49 -103q5 -68 62 -113q42 -33 95.5 -34.5t93.5 30.5zM266 571l-80 -48h-6l83 91h6l83 -91h-6z" />
    <glyph glyph-name="adieresis" unicode="&#xe4;" horiz-adv-x="448" 
d="M438 4h-107v21q-53 -23 -113 -23q-40 0 -81.5 12t-68.5 33q-57 45 -57 108t56 107q25 19 86 36q-23 24 -23 64q0 73 58 111q32 21 68.5 21t66 -16t49 -47t19.5 -69v-255q0 -14 2.5 -27.5t7 -23.5t9.5 -19t10 -15t9 -10t6.5 -6zM262 473q-43 0 -72.5 -20.5t-40 -49
t-8 -57.5t18.5 -46q28 7 57 7h13q55 0 101 -23v120q0 19 -7 33.5t-17.5 21t-20.5 10t-17 3.5zM324 40q3 2 7 5v206q-5 4 -6 5q-41 32 -101 34q-61 2 -102 -30q-53 -42 -49 -103q5 -68 62 -113q42 -33 95.5 -34.5t93.5 30.5zM197 553q-13 0 -21 9t-8 21.5t8 21t21 8.5t21 -9
t8 -21t-8 -21t-21 -9zM321 553q-13 0 -21 9t-8 21t8 21t21 9t21 -9t8 -21t-8 -21t-21 -9z" />
    <glyph glyph-name="aring" unicode="&#xe5;" horiz-adv-x="448" 
d="M438 4h-107v21q-53 -23 -113 -23q-40 0 -81.5 12t-68.5 33q-57 45 -57 108t56 107q25 19 86 36q-23 24 -23 64q0 73 58 111q32 21 68.5 21t66 -16t49 -47t19.5 -69v-255q0 -14 2.5 -27.5t7 -23.5t9.5 -19t10 -15t9 -10t6.5 -6zM262 473q-43 0 -72.5 -20.5t-40 -49
t-8 -57.5t18.5 -46q28 7 57 7h13q55 0 101 -23v120q0 19 -7 33.5t-17.5 21t-20.5 10t-17 3.5zM324 40q3 2 7 5v206q-5 4 -6 5q-41 32 -101 34q-61 2 -102 -30q-53 -42 -49 -103q5 -68 62 -113q42 -33 95.5 -34.5t93.5 30.5zM275 536q-16 0 -28 11.5t-12 28t12 28.5t28 12
t28 -12t12 -28.5t-12 -28t-28 -11.5zM275 608q-13 0 -22.5 -9.5t-9.5 -23t9.5 -23t23 -9.5t23 9.5t9.5 23.5q0 9 -4.5 16.5t-12 11.5t-16.5 4z" />
    <glyph glyph-name="ae" unicode="&#xe6;" horiz-adv-x="804" 
d="M632 489q36 -8 64 -22.5t43 -31t25 -37t13 -36.5t3 -33t-0.5 -23t-1.5 -9h-38q8 -15 15 -35t12.5 -49.5t-0.5 -64t-26 -64.5q-10 -16 -23 -31t-42 -33t-61 -22l-3.5 -0.5t-8.5 -1t-8 -0.5q-55 -6 -120 10.5t-103 50.5q-18 -15 -65 -35t-89 -20q-40 0 -81.5 12t-68.5 33
q-57 45 -57 108t56 107q25 19 86 36q-23 24 -23 64q0 73 58 111q50 31 103 17.5t81 -60.5q26 20 60.5 35t69.5 22t67 7q40 0 63 -5zM391 372q-14 -31 -20 -64h365q-1 35 -10.5 63t-21 45.5t-29 30t-31 18.5t-30.5 9.5t-24.5 4t-16.5 0.5h-3q-39 2 -76.5 -11t-62.5 -38
q-24 -24 -40 -58zM262 473q-35 0 -61 -13.5t-39.5 -34.5t-18.5 -44.5t0 -45t17 -35.5q28 7 57 7h13q32 0 63 -9q10 48 38 88v18q0 19 -7 33.5t-17.5 21t-20.5 10t-17 3.5zM135 44q24 -24 60.5 -28.5t70 5.5t59.5 22.5t36 23.5q-42 42 -60.5 96.5t-11.5 112.5q-31 13 -65 14
q-61 2 -102 -30q-53 -42 -49 -103q4 -55 62 -113zM732 90q19 30 23.5 65t-4.5 65t-16.5 47t-15.5 30h-349q-3 -24 -2 -49q3 -52 23 -100q21 -49 56 -85q48 -48 109 -55q18 -1 42 1q52 5 91 33q25 20 43 48z" />
    <glyph glyph-name="ccedilla" unicode="&#xe7;" horiz-adv-x="511" 
d="M440 95l2 2h58l-8 -10l-16 -18q-17 -17 -41.5 -31t-51 -23t-54.5 -14t-53 -5v-13h-1q-13 -6 -21 -13t-11.5 -14t-4.5 -13t0 -13q1 -10 9 -21q5 -9 15 -9q4 0 6 1q7 3 12 17l2 4v1h20v-3q-5 -12 -16 -18q-4 -3 -8 -4q-6 -3 -13 -3h-3q-15 0 -28 8q-14 9 -16 23
q-2 20 13 36q19 18 36 25l1 9q-103 1 -175 74q-75 75 -75 180q0 104 74 178q74 73 178 73q35 0 72.5 -8t73 -25.5t59.5 -40.5q10 -10 19 -22l8 -10h-59l-2 2q-12 16 -25 29q-53 53 -128 56q-78 3 -129 -49q-33 -32 -49 -79t-14 -101q6 -110 79 -183q54 -54 121.5 -56
t117.5 49q15 14 26 32z" />
    <glyph glyph-name="egrave" unicode="&#xe8;" horiz-adv-x="535" 
d="M363 497q126 -25 145 -131q7 -34 1 -61h-38q8 -14 15 -34.5t12.5 -50t-0.5 -64t-26 -64.5q-10 -15 -23 -30t-42 -33t-61 -23h-4t-8 -0.5t-8 -1.5q-57 -5 -123 12t-104 52q-3 4 -7 7q-41 41 -60 96t-12 113q8 69 52 124q34 43 100 69t127 26h1q40 0 63 -6zM162 438
q-48 -47 -60 -122h365q-2 35 -11 63t-21 45.5t-29 30.5t-30.5 19t-30.5 9t-24.5 3.5t-16.5 0.5h-3q-39 2 -77 -11t-62 -38zM463 98q19 31 23.5 66t-4.5 65t-16.5 46.5t-15.5 29.5h-350q-2 -24 -1 -48q5 -112 79 -185q48 -48 109 -55q18 -2 42 0q52 5 90 34q26 19 44 47z
M246 596q-19 11 -19 25q0 9 6 14.5t14 5.5q12 0 25 -15l70 -81h-7z" />
    <glyph glyph-name="ecircumflex" unicode="&#xea;" horiz-adv-x="535" 
d="M363 497q50 -10 83.5 -33.5t45.5 -50t17 -51t2 -41.5l-2 -16h-38q8 -14 15 -34.5t12.5 -50t-0.5 -64t-26 -64.5q-10 -15 -23 -30t-42 -33t-61 -23h-4t-8 -0.5t-8 -1.5q-36 -3 -78.5 3t-83 22t-65.5 39q-3 4 -7 7q-41 41 -60 96t-12 113q8 69 52 124q34 43 100 69t127 26
h1q40 0 63 -6zM162 438q-48 -47 -60 -122h365q-2 35 -11 63t-21 45.5t-29 30.5t-30.5 19t-30.5 9t-24.5 3.5t-16.5 0.5h-3q-39 2 -77 -11t-62 -38zM463 98q19 31 23.5 66t-4.5 65t-16.5 46.5t-15.5 29.5h-350q-2 -24 -1 -48q5 -112 79 -185q48 -48 109 -55q18 -2 42 0
q52 5 90 34q26 19 44 47zM293 571l-80 -48h-7l84 91h6l83 -91h-6z" />
    <glyph glyph-name="edieresis" unicode="&#xeb;" horiz-adv-x="535" 
d="M363 497q50 -10 83.5 -33.5t45.5 -50t17 -51t2 -41.5l-2 -16h-38q8 -14 15 -34.5t12.5 -50t-0.5 -64t-26 -64.5q-10 -15 -23 -30t-42 -33t-61 -23h-4t-8 -0.5t-8 -1.5q-57 -5 -123 12t-104 52q-3 4 -7 7q-41 41 -60 96t-12 113q8 69 52 124q34 43 100 69t127 26h1
q40 0 63 -6zM162 438q-48 -47 -60 -122h365q-2 35 -11 63t-21 45.5t-29 30.5t-30.5 19t-30.5 9t-24.5 3.5t-16.5 0.5h-3q-39 2 -77 -11t-62 -38zM463 98q19 31 23.5 66t-4.5 65t-16.5 46.5t-15.5 29.5h-350q-2 -24 -1 -48q5 -112 79 -185q48 -48 109 -55q18 -2 42 0
q52 5 90 34q26 19 44 47zM222.5 553q-13.5 0 -21 9t-7.5 21t7.5 21t21 9t21.5 -9t8 -21t-8 -21t-21.5 -9zM346.5 553q-13.5 0 -21 9t-7.5 21.5t7.5 21t21 8.5t21 -9t7.5 -21t-7.5 -21t-21 -9z" />
    <glyph glyph-name="igrave" unicode="&#xec;" horiz-adv-x="191" 
d="M175 8q2 -2 5 -4h-167q3 2 5 4q44 34 47 93v226v52q0 13 -2 23q-8 51 -47 82l-6 4h167q-2 -2 -5 -4q-44 -34 -47 -93v-278q0 -13 2 -23q9 -51 48 -82zM58 596q-19 11 -19 25q0 9 6 14.5t13 5.5q13 0 26 -15l70 -81h-7z" />
    <glyph glyph-name="iacute" unicode="&#xed;" horiz-adv-x="191" 
d="M125 101q3 -59 47 -93q3 -2 5 -4h-167l6 4q39 31 47 82q2 10 2 23v278q-3 59 -47 93q-2 2 -5 4h167q-3 -2 -5 -4q-39 -31 -48 -82q-2 -10 -2 -23v-52v-226zM133 596l-89 -51h-7l70 81q12 15 25 15q8 0 14 -5.5t6 -14.5q0 -14 -19 -25z" />
    <glyph glyph-name="icircumflex" unicode="&#xee;" horiz-adv-x="191" 
d="M126 327l-1 -226q3 -59 47 -93q3 -2 5 -4h-167l6 4q39 31 48 82q1 10 1 23v278q-3 59 -47 93q-2 2 -5 4h168l-6 -4q-39 -31 -48 -82q-1 -10 -1 -23v-52zM95 571l-79 -48h-7l83 91h7l83 -91h-7z" />
    <glyph glyph-name="idieresis" unicode="&#xef;" horiz-adv-x="190" 
d="M125 327v-226q3 -59 47 -93q2 -2 5 -4h-167q3 2 5 4q39 31 48 82q2 10 2 23v278q-3 59 -47 93q-3 2 -5 4h167l-6 -4q-39 -31 -47 -82q-2 -10 -2 -23v-52zM33 553q-13 0 -21 9t-8 21.5t8 21t21 8.5t21 -9t8 -21t-8 -21t-21 -9zM157 553q-13 0 -21 9t-8 21t8 21t21 9
t21 -8.5t8 -21t-8 -21.5t-21 -9z" />
    <glyph glyph-name="ntilde" unicode="&#xf1;" horiz-adv-x="518" 
d="M507 9l6 -4h-55h-60h-52q3 2 5 4q44 34 47 93v238q0 70 -27.5 110t-101.5 40q-68 0 -107 -41q-37 -40 -38 -119v-2v-215q0 -13 2 -22q8 -51 48 -82q2 -2 5 -4h-55h-60h-52q3 2 5 4q44 34 47 93v64v217q0 11 -2 20q-8 51 -47 82l-6 4h115v-87q33 99 152 99
q105 0 143.5 -44t38.5 -135v-156v-52q0 -13 2 -23q8 -51 47 -82zM184.5 586q-5.5 -7 -9.5 -18l-6 2q21 69 65 53q13 -4 36 -19t34 -19q7 -2 11.5 -2t11 1.5t11.5 8.5t9 18l6 -2q-11 -37 -27 -49t-38 -4q-12 4 -34.5 18.5t-35.5 18.5q-6 3 -11 3t-11 -1.5t-11.5 -8.5z" />
    <glyph glyph-name="ograve" unicode="&#xf2;" horiz-adv-x="544" 
d="M272 508q105 0 179.5 -75t74.5 -180t-75 -180t-180 -75q-104 0 -178.5 75t-74.5 180t74.5 180t179.5 75zM321 25q72 0 116 51t44 129q0 51 -20.5 100.5t-57.5 89.5q-25 26 -54 44.5t-59.5 28t-60.5 9.5q-72 0 -116.5 -51t-44.5 -129q0 -50 20.5 -99.5t58.5 -89.5
q37 -40 82.5 -61.5t91.5 -21.5zM204 596q-19 11 -19 25q0 9 6 14.5t14 5.5q12 0 25 -15l70 -81h-7z" />
    <glyph glyph-name="oacute" unicode="&#xf3;" horiz-adv-x="544" 
d="M272 508q105 0 179.5 -75t74.5 -180t-75 -180t-180 -75q-104 0 -178.5 75t-74.5 180t74.5 180t179.5 75zM321 25q72 0 116 51t45 129q0 51 -21 100.5t-58 89.5q-25 26 -54 44.5t-59.5 28t-60.5 9.5q-72 0 -116.5 -51t-44.5 -129q0 -50 20.5 -99.5t58.5 -89.5
q37 -40 82.5 -61.5t91.5 -21.5zM310 596l-89 -51h-7l70 81q13 15 26 15q7 0 13 -5.5t6 -14.5q0 -14 -19 -25z" />
    <glyph glyph-name="ocircumflex" unicode="&#xf4;" horiz-adv-x="544" 
d="M272 508q105 0 179.5 -75t74.5 -180t-75 -180t-180 -75q-104 0 -178.5 75t-74.5 180t74.5 180t179.5 75zM321 25q72 0 116 51t44 129q0 51 -20.5 100.5t-57.5 89.5q-25 26 -54 44.5t-59.5 28t-60.5 9.5q-72 0 -116.5 -51t-44.5 -129q0 -50 20.5 -99.5t58.5 -89.5
q37 -40 82.5 -61.5t91.5 -21.5zM275 571l-80 -48h-7l83 91h7l83 -91h-7z" />
    <glyph glyph-name="otilde" unicode="&#xf5;" horiz-adv-x="544" 
d="M272 508q105 0 179.5 -75t74.5 -180t-75 -180t-180 -75q-104 0 -178.5 75t-74.5 180t74.5 180t179.5 75zM321 25q72 0 116 51t44 129q0 51 -20.5 100.5t-57.5 89.5q-25 26 -54 44.5t-59.5 28t-60.5 9.5q-72 0 -116.5 -51t-44.5 -129q0 -50 20.5 -99.5t58.5 -89.5
q37 -40 82.5 -61.5t91.5 -21.5zM195 586q-5 -7 -9 -18l-7 2q21 69 66 53q13 -4 36 -19t34 -19q6 -2 11 -2t11 1.5t11.5 8.5t9.5 18l6 -2q-11 -37 -27.5 -49t-38.5 -4q-11 4 -34 18.5t-35 18.5q-7 3 -12 3t-11 -1.5t-11 -8.5z" />
    <glyph glyph-name="odieresis" unicode="&#xf6;" horiz-adv-x="544" 
d="M272 508q105 0 179.5 -75t74.5 -180t-75 -180t-180 -75q-104 0 -178.5 75t-74.5 180t74.5 180t179.5 75zM321 25q72 0 116 51t44 129q0 51 -20.5 100.5t-57.5 89.5q-25 26 -54 44.5t-59.5 28t-60.5 9.5q-72 0 -116.5 -51t-44.5 -129q0 -50 20.5 -99.5t58.5 -89.5
q37 -40 82.5 -61.5t91.5 -21.5zM210 553q-13 0 -21 9t-8 21.5t8 21t21 8.5t21 -9t8 -21t-8 -21t-21 -9zM333.5 553q-13.5 0 -21 9t-7.5 21.5t7.5 21t21 8.5t21.5 -9t8 -21t-8 -21t-21.5 -9z" />
    <glyph glyph-name="divide" unicode="&#xf7;" horiz-adv-x="520" 
d="M255.5 223q22.5 0 35 -13.5t12.5 -34t-12.5 -34t-35 -13.5t-35 13.5t-12.5 34t12.5 34t35 13.5zM470 326h-420v11h420v-11zM255.5 440q-22.5 0 -35 13.5t-12.5 34t12.5 34t35 13.5t35 -13.5t12.5 -34t-12.5 -34t-35 -13.5z" />
    <glyph glyph-name="oslash" unicode="&#xf8;" horiz-adv-x="544" 
d="M407 468q55 -34 87 -91t32 -124q0 -105 -74.5 -180t-180.5 -75q-63 0 -118 30l-66 -115l-11 7l66 114q-57 34 -90.5 92t-33.5 127q0 105 74.5 180t179.5 75q67 0 125 -33l60 103l10 -6zM147 108q11 -12 24 -24l197 342q-66 51 -139 51q-72 0 -116.5 -51t-44.5 -129
q0 -50 20.5 -99.5t58.5 -89.5zM321 25q72 0 116 51t44 129q0 51 -20.5 100.5t-57.5 89.5q-12 12 -25 23l-197 -341q67 -52 140 -52z" />
    <glyph glyph-name="ugrave" unicode="&#xf9;" horiz-adv-x="515" 
d="M461 60q12 -31 37 -52l6 -4h-52h-60v87l-6 -15q-37 -84 -146 -84q-105 0 -143.5 44.5t-38.5 134.5v228q-7 53 -46 86l-6 4h164q-3 -2 -5 -4q-26 -21 -38 -53q-9 -22 -9 -49v-229q0 -70 27.5 -110.5t101.5 -40.5q68 0 106.5 41t38.5 121v218q0 28 -9 50q-12 31 -38 52
q-2 2 -5 4h164l-6 -4q-25 -21 -37 -52q-9 -22 -9 -50v-273q0 -28 9 -50zM206 596q-19 11 -19 25q0 9 6 14.5t13 5.5q13 0 26 -15l70 -81h-7z" />
    <glyph glyph-name="uacute" unicode="&#xfa;" horiz-adv-x="515" 
d="M461 60q12 -31 37 -52l6 -4h-52h-60v87l-6 -15q-37 -84 -146 -84q-105 0 -143.5 44.5t-38.5 134.5v228q-7 53 -46 86l-6 4h164q-3 -2 -5 -4q-26 -21 -38 -53q-9 -22 -9 -49v-229q0 -70 27.5 -110.5t101.5 -40.5q68 0 106.5 41t38.5 121v218q0 28 -9 50q-12 31 -38 52
q-2 2 -5 4h164l-6 -4q-25 -21 -37 -52q-9 -22 -9 -50v-273q0 -28 9 -50zM273 596l-90 -51h-7l71 81q12 15 25 15q8 0 14 -5.5t6 -14.5q0 -14 -19 -25z" />
    <glyph glyph-name="ucircumflex" unicode="&#xfb;" horiz-adv-x="515" 
d="M461 60q12 -31 37 -52l6 -4h-52h-60v87l-6 -15q-37 -84 -146 -84q-105 0 -143.5 44.5t-38.5 134.5v228q-7 53 -46 86l-6 4h164q-3 -2 -5 -4q-26 -21 -38 -53q-9 -22 -9 -49v-229q0 -70 27.5 -110.5t101.5 -40.5q68 0 106.5 41t38.5 121v218q0 28 -9 50q-12 31 -38 52
q-2 2 -5 4h164l-6 -4q-25 -21 -37 -52q-9 -22 -9 -50v-273q0 -28 9 -50zM255 571l-80 -48h-6l83 91h6l83 -91h-6z" />
    <glyph glyph-name="udieresis" unicode="&#xfc;" horiz-adv-x="515" 
d="M461 60q12 -31 37 -52l6 -4h-52h-60v87l-6 -15q-37 -84 -146 -84q-105 0 -143.5 44.5t-38.5 134.5v228q-7 53 -46 86l-6 4h164q-3 -2 -5 -4q-26 -21 -38 -53q-9 -22 -9 -49v-229q0 -70 27.5 -110.5t101.5 -40.5q68 0 106.5 41t38.5 121v218q0 28 -9 50q-12 31 -38 52
q-2 2 -5 4h164l-6 -4q-25 -21 -37 -52q-9 -22 -9 -50v-273q0 -28 9 -50zM193 553q-13 0 -21 9t-8 21.5t8 21t21 8.5t21 -9t8 -21t-8 -21t-21 -9zM317 553q-13 0 -21 9t-8 21.5t8 21t21 8.5t21 -8.5t8 -21t-8 -21.5t-21 -9z" />
    <glyph glyph-name="yacute" unicode="&#xfd;" horiz-adv-x="486" 
d="M367 489h123l-6 -4q-45 -31 -65 -76l-163 -405q-23 -56 -48.5 -98.5t-48.5 -65.5t-45.5 -38t-40.5 -19t-32 -5t-21 2l-8 2l12 67q22 -22 45.5 -25.5t44.5 9t41 32.5t35.5 44t27.5 45.5t19 35.5l6 14h-29l-165 408l-1 1l-7 17q-12 31 -34 50q-6 5 -11 9h134v-1
q-16 -11 -21 -30t3 -37l149 -370l135 333q11 27 4.5 55t-28.5 46q-2 2 -5 4zM282 596l-89 -51h-7l70 81q12 15 25 15q8 0 14 -5.5t6 -14.5q0 -14 -19 -25z" />
    <glyph glyph-name="ydieresis" unicode="&#xff;" horiz-adv-x="486" 
d="M367 489h123l-6 -4q-45 -31 -65 -76l-163 -405q-23 -56 -48.5 -98.5t-48.5 -65.5t-45.5 -38t-40.5 -19t-32 -5t-21 2l-8 2l12 67q22 -22 45.5 -25.5t44.5 9t41 32.5t35.5 44t27.5 45.5t19 35.5l6 14h-29l-165 408l-1 1l-7 17q-12 31 -34 50q-6 5 -11 9h134v-1
q-16 -11 -21 -30t3 -37l149 -370l135 333q11 27 4.5 55t-28.5 46q-2 2 -5 4zM181 553q-13 0 -21 9t-8 21.5t8 21t21.5 8.5t21 -9t7.5 -21t-8 -21t-21 -9zM305 553q-13 0 -21 9t-8 21.5t8 21t21 8.5t21 -9t8 -21t-8 -21t-21 -9z" />
    <glyph glyph-name="Lslash" unicode="&#x141;" horiz-adv-x="546" 
d="M557 4h-53h-445v0q51 37 51 101v121l-103 -94l-8 9l111 102v359q0 65 -51 101v1h167q-3 -2 -6 -5q-48 -38 -48 -103v-296l127 116l8 -9l-135 -124v-262h239q55 0 100 32l35 -38z" />
    <glyph glyph-name="lslash" unicode="&#x142;" horiz-adv-x="382" 
d="M371 84h11q-30 -92 -137 -92q-147 0 -147 156v93l-89 -82l-8 9l97 89v122v243q0 13 -2 22q-8 51 -47 82l-6 4h167q-2 -2 -5 -4q-44 -34 -47 -93v-254v-67l75 69l8 -9l-83 -76v-151q0 -67 18 -104.5t69 -37.5q98 0 126 81z" />
    <glyph glyph-name="OE" unicode="&#x152;" horiz-adv-x="870" 
d="M857 15l12 -11h-53h-318q28 20 44 50.5t16 65.5v124q-41 -60 -106 -95t-141 -35q-123 0 -210.5 88t-87.5 212.5t87.5 212.5t211.5 88q50 0 96.5 -16.5t84.5 -45.5t65 -68v3q0 34 -16 65t-44 51h371l-11 -11l-36 -32q-45 32 -100 32h-102v-211h191v-10h-191v-457h102
q55 0 100 32zM558 323v93q-18 111 -100.5 191t-182.5 80q-86 0 -149 -66.5t-63 -157.5q0 -49 15 -97.5t42.5 -88.5t63 -70.5t79 -47.5t87.5 -17q75 0 134 52t74 129zM312 73q18 0 30.5 -12.5t12.5 -30.5t-12.5 -30.5t-30.5 -12.5t-30.5 12.5t-12.5 30.5q0 11 5.5 21t15.5 16
t22 6z" />
    <glyph glyph-name="oe" unicode="&#x153;" horiz-adv-x="972" 
d="M801 497q36 -8 63.5 -22.5t43 -31t25 -37t13 -36.5t3.5 -33t-0.5 -23t-1.5 -9h-39q9 -15 16 -35t12.5 -49.5t-1 -64t-25.5 -64.5q-10 -16 -23.5 -31t-42 -33t-60.5 -22q-1 0 -4 -0.5t-8 -1t-8 -0.5q-57 -6 -123.5 11.5t-103.5 52.5q-4 3 -7 6q-21 22 -37 47
q-33 -59 -92 -94.5t-130 -35.5q-104 0 -178.5 74.5t-74.5 180t74.5 180t179.5 74.5q68 0 125.5 -33t91.5 -90q9 17 21 30q34 44 100 69.5t127 25.5h1q40 0 63 -5zM477 152q4 22 4 46q0 51 -21 101q-20 49 -57 88q-25 26 -54 44.5t-59.5 28.5t-60.5 10q-72 0 -116.5 -51
t-44.5 -129q0 -51 20.5 -100.5t58.5 -89.5q37 -39 82.5 -60.5t91.5 -21.5q60 0 102 37t54 97zM600 438q-48 -48 -60 -122h365q-2 35 -11 63t-21 45.5t-29 30t-30.5 18.5t-31 9.5t-24.5 4t-16 0.5h-3q-39 2 -77 -11t-62 -38zM900 98q20 30 24.5 65t-4.5 65t-16.5 47t-15.5 30
h-350q-3 -24 -1 -48q5 -112 79 -186q48 -48 109 -55q18 -1 41 1q53 5 91 33q26 20 43 48z" />
    <glyph glyph-name="Scaron" unicode="&#x160;" horiz-adv-x="538" 
d="M470 349q51 -54 51 -129q0 -101 -73.5 -164t-179.5 -63q-94 0 -160.5 35.5t-86.5 98.5h56q7 -20 18.5 -38.5t29 -35.5t39.5 -26q66 -27 135.5 -17.5t116.5 44.5q50 38 50 139q0 61 -39 103.5t-117 42.5h-89q-202 0 -202 161q0 94 70.5 154.5t170.5 60.5q89 0 152 -35.5
t83 -98.5h-59q-18 50 -81 90q-43 28 -93.5 30.5t-85 -10.5t-55.5 -32q-50 -45 -50 -125q0 -61 41.5 -96t121.5 -35h88q97 0 148 -54zM273 751h-6l-83 91h6l80 -48l80 48h6z" />
    <glyph glyph-name="scaron" unicode="&#x161;" horiz-adv-x="431" 
d="M373.5 253q36.5 -35 36.5 -88q0 -71 -55.5 -121.5t-140.5 -50.5q-80 0 -130.5 27.5t-64.5 81.5l71 45q4 -28 7.5 -45t12.5 -38t21 -32.5t33 -19.5t50 -8q73 0 111 39.5t38 96.5q0 84 -107 84h-89q-72 0 -105 35.5t-33 86.5q0 71 52.5 112t128.5 41q67 0 115 -26
q59 -31 74 -81l-71 -44q-2 57 -40 98.5t-78 41.5q-67 0 -104 -30.5t-37 -82.5q0 -87 106 -87h90q72 0 108.5 -35zM218 551h-7l-83 90h7l80 -47l79 47h7z" />
    <glyph glyph-name="Ydieresis" unicode="&#x178;" horiz-adv-x="593" 
d="M574 704h42q-76 -48 -129 -121l-165 -230v-252v-8q0 -56 45 -89h-156q44 32 48 86v242l-210 300q-29 42 -71 72h157q-17 -12 -20.5 -32t8.5 -36l191 -272l182 253q12 17 9 37t-20 32l-25 18h114zM235 739q-13 0 -21 9t-8 21t8 21t21 9t21 -9t8 -21t-8 -21t-21 -9z
M359 739q-13 0 -21 9t-8 21t8 21t21 9t21 -9t8 -21t-8 -21t-21 -9z" />
    <glyph glyph-name="Zcaron" unicode="&#x17d;" horiz-adv-x="512" 
d="M502 15l11 -11h1h-28h-490l442 689h-224h-53q-55 0 -100 -32l-35 32l-12 11h28h476l-440 -689h236h53q55 0 100 32zM260 751h-6l-83 91h6l80 -48l80 48h7z" />
    <glyph glyph-name="zcaron" unicode="&#x17e;" horiz-adv-x="378" 
d="M358 15l11 -11h-22h-347l300 474h-128h-6q-55 0 -100 -32l-35 32l-12 11h28h329l-298 -474h138h6q56 0 101 32zM229 551h-7l-83 90h7l80 -47l79 47h7z" />
    <glyph glyph-name="quoteleft" unicode="&#x2018;" horiz-adv-x="131" 
d="M101.5 637q12.5 -12 12.5 -33q0 -19 -12.5 -32t-31.5 -13q-51 0 -51 60v25q0 92 70 92q8 0 16 -2v-10q-8 1 -16 1q-58 0 -58 -81v-12q12 17 38 17q20 0 32.5 -12z" />
    <glyph glyph-name="quoteright" unicode="&#x2019;" horiz-adv-x="131" 
d="M61 736q51 0 51 -61v-25q0 -91 -70 -91q-8 0 -16 1v11q8 -1 16 -1q58 0 58 80v12q-12 -17 -38 -17q-20 0 -32.5 12.5t-12.5 32.5t12.5 33t31.5 13z" />
    <glyph glyph-name="quotedblleft" unicode="&#x201c;" horiz-adv-x="292" 
d="M69 649q20 0 32.5 -12t12.5 -33q0 -19 -12.5 -32t-31.5 -13q-51 0 -51 60v25q0 92 70 92q8 0 16 -2v-10q-8 1 -16 1q-58 0 -58 -81v-12q12 17 38 17zM262.5 637q11.5 -12 11.5 -33q0 -19 -12.5 -32t-31.5 -13q-51 0 -51 60v25q0 92 70 92q8 0 17 -2v-10q-9 1 -17 1
q-58 0 -58 -81v-12q12 17 38 17q22 0 33.5 -12z" />
    <glyph glyph-name="quotedblright" unicode="&#x201d;" horiz-adv-x="292" 
d="M61 736q51 0 51 -61v-25q0 -91 -70 -91q-8 0 -16 1v11q8 -1 16 -1q58 0 58 80v12q-12 -17 -38 -17q-20 0 -32.5 12.5t-12.5 32.5t12.5 33t31.5 13zM222 736q50 0 50 -61v-25q0 -91 -70 -91q-7 0 -16 1v11q9 -1 16 -1q58 0 58 80v12q-11 -17 -37 -17q-22 0 -34 12.5
t-12 32.5t12.5 33t32.5 13z" />
    <glyph glyph-name="Euro" unicode="&#x20ac;" horiz-adv-x="683" 
d="M606 100v1h59l-2 -3q-10 -14 -21 -26q-46 -52 -104.5 -79t-121.5 -27t-122 27t-105 80q-70 79 -89 187h-97v11h96q-5 30 -5 59q0 25 4 50h-95v12h96q18 112 89 192q61 69 143.5 93.5t165 0t144.5 -94.5q13 -14 25 -32l2 -3h-61l-1 1q-15 23 -32 43q-22 25 -49.5 43
t-58 28t-61.5 12q-103 5 -171 -73q-72 -81 -81 -210h266v-12h-267q-1 -23 0 -45q1 -31 7 -64h260v-11h-258q24 -118 94 -197q71 -81 160.5 -84t156.5 73q19 21 34 48z" />
    <glyph glyph-name="trademark" unicode="&#x2122;" horiz-adv-x="852" 
d="M815 262q1 -1 3 -2l14 -10h-133l14 10q1 1 3 2q26 21 26 55v318l-145 -241h-29l-141 228v-300q1 -39 33 -62l13 -10h-110l14 10q30 21 33 58v283q0 9 -2 17q-6 26 -26 43l-26 -24l-3 2q-25 18 -56 18h-49v-332v-17q0 -31 24 -48l14 -10h-126l13 10q25 17 27 47v350h-49
q-31 0 -56 -18l-4 -2l-41 38h14h12h4h301h1h72l147 -239l128 213q-7 9 -16 16l-14 10h133l-14 -10q-2 -1 -3 -2q-26 -21 -26 -55v-291q0 -35 26 -55z" />
    <glyph glyph-name="CA.dlig" unicode="&#xf013;" horiz-adv-x="901" 
d="M594 134l1 1h66l-2 -3q-12 -14 -24 -26q-52 -52 -118 -79t-137 -27q-47 0 -92 11.5t-87.5 35.5t-77.5 59q-52 52 -79.5 118.5t-27.5 139.5q0 72 27.5 137.5t78.5 116.5q72 72 172 95.5t192 -6.5l25 -67q-16 9 -39 18.5t-61.5 19.5t-76.5 12t-81.5 -11t-78.5 -43
q-51 -43 -74 -114t-19 -153q4 -79 34.5 -150t82.5 -123q80 -80 181 -83t177 73q21 21 38 48zM753 12q19 13 26 36t-1 45l-54 142l-4 10l-9 25h-217l-27 -73q-8 -23 -4 -47t20 -43h-107l25 18q34 25 49 64l38 99l107 286l-52 138h27h42l233 -616q20 -52 65 -84h-157zM498 280
h209l-105 276z" />
    <glyph glyph-name="CO.dlig" unicode="&#xf014;" horiz-adv-x="673" 
d="M594 134l1 1h66l-2 -3q-12 -14 -24 -26q-52 -52 -118 -79t-137 -27q-47 0 -92 11.5t-87.5 35.5t-77.5 59q-52 52 -79.5 118.5t-27.5 139.5q0 72 27.5 137.5t78.5 116.5q69 69 162 93.5t186.5 0t163.5 -94.5q14 -15 28 -32l3 -3h-70q-17 24 -37 44q-38 37 -88 58.5
t-104 24.5q-115 4 -192 -73q-49 -48 -73 -118t-20 -149t34.5 -150t82.5 -123q80 -80 181 -83t177 73q21 21 38 48zM372 582q91 0 155.5 -64.5t64.5 -156t-64.5 -156t-155.5 -64.5t-155.5 64.5t-64.5 156t64.5 156t155.5 64.5zM400 161q41 0 77 22.5t57.5 60.5t21.5 82
q0 93 -64 164.5t-147 71.5q-64 0 -110 -49t-46 -115q0 -93 64 -165t147 -72z" />
    <glyph glyph-name="LO.dlig" unicode="&#xf015;" horiz-adv-x="796" 
d="M765 11l12 -11h-54h-712q1 0 1 1q50 36 50 100v498q0 64 -50 101h-1h167q-3 -2 -5 -4q-49 -39 -49 -104v-575h506q55 0 100 32zM477 111q-123 0 -210.5 88t-87.5 212t87.5 212t211.5 88t211.5 -88t87.5 -212t-88 -212t-212 -88zM441 684q-86 0 -149 -66.5t-63 -157.5
q0 -83 40 -157.5t106.5 -119.5t140.5 -45q56 0 105 30.5t78 82t29 111.5q0 83 -40 157.5t-107 119.5t-140 45z" />
    <glyph glyph-name="LA.dlig" unicode="&#xf016;" horiz-adv-x="778" 
d="M777 0h-23h-120h-623q1 0 1 1q50 36 50 100v498q0 64 -50 101h-1h167q-3 -2 -5 -4q-49 -39 -49 -104v-575h506q10 0 22 2q19 29 7 62l-54 142l-4 11l-9 24h-217l-27 -72q-8 -23 -4 -47.5t20 -42.5h-106l24 17q35 25 49 64l38 100l108 286l-52 137h26h42l234 -616
q19 -52 64 -84h-14zM379 269h209l-104 275z" />
    <glyph glyph-name="LU.dlig" unicode="&#xf017;" horiz-adv-x="785" 
d="M765 11l12 -11h-54h-712q1 0 1 1q50 36 50 100v498q0 64 -50 101h-1h167q-3 -2 -5 -4q-49 -39 -49 -104v-575h506q55 0 100 32zM236 694l-4 4l-5 3h155l-5 -3q-3 -2 -5 -4q-39 -31 -39 -84v-273q0 -117 52.5 -168t133.5 -51q36 0 66.5 9t60.5 31.5t46 67.5q17 46 17 111
v231v2v34q-1 59 -50 94l-5 3h123l-6 -3q-44 -32 -49 -87v-274q0 -68 -18 -117.5t-49.5 -75.5t-67.5 -38t-79 -12q-51 0 -89.5 10t-72.5 35t-52 75t-18 123v275q-1 52 -40 82z" />
    <glyph glyph-name="LL.dlig" unicode="&#xf018;" horiz-adv-x="761" 
d="M246 94q43 31 43 85v431q0 55 -43 86l-5 4h157l-5 -4q-3 -1 -5 -3q-41 -33 -41 -88v-497h205q47 0 85 28l2 1l31 -35l14 -12l-5 -1l-46 1h-392zM777 0h-54h-712q1 0 1 1q50 36 50 100v498q0 64 -50 101h-1h167q-3 -2 -5 -4q-49 -39 -49 -104v-575h506q55 0 100 32l35 -38
z" />
    <glyph glyph-name="LE.dlig" unicode="&#xf019;" horiz-adv-x="762" 
d="M777 0h-54h-712q1 0 1 1q50 36 50 100v498q0 64 -50 101h-1h167q-3 -2 -5 -4q-49 -39 -49 -104v-575h506q55 0 100 32l35 -38zM282 99q50 36 50 98v402q0 61 -50 97l-6 4h330l-45 -42l-2 1q-38 28 -85 28h-85v-177h164v-13h-164v-388h86q33 0 93.5 7.5t76.5 19.5l1 1
l45 -41h-5h-45h-365z" />
    <glyph glyph-name="CH.dlig" unicode="&#xf01a;" horiz-adv-x="939" 
d="M874 128q0 -61 46 -98l6 -4h-167q8 6 15 13q38 35 38 90v155h-409v-270q87 6 153 72q21 21 38 48l1 1h66l-2 -3q-12 -14 -24 -26q-52 -52 -118 -79t-137 -27q-47 0 -92 11.5t-87.5 35.5t-77.5 59q-52 52 -79.5 118.5t-27.5 139.5q0 72 27.5 137.5t78.5 116.5
q69 69 162 93.5t186.5 0t163.5 -94.5q14 -15 28 -32l3 -3h-70q-17 24 -37 44q-38 37 -88 58.5t-104 24.5q-115 4 -192 -73q-49 -48 -73 -118t-20 -149q2 -39 10.5 -77t23.5 -72.5t36 -66t47 -57.5q63 -63 142 -79v495q0 65 -50 102h-1h167q-11 -8 -21 -18q-32 -35 -32 -85
v-217h409v329q0 54 -38 90q-7 7 -15 13h167q-3 -2 -6 -5q-46 -36 -46 -98v-495z" />
    <glyph glyph-name="CM.dlig" unicode="&#xf01b;" horiz-adv-x="1045" 
d="M980 130q0 -63 47 -100q2 -2 5 -4h-167l6 4q46 38 46 100v571l-12 -20l-246 -411h-39l-243 280l-10 16v-552q108 -9 189 72q21 21 38 48l1 1h66l-2 -3q-12 -14 -24 -26q-52 -52 -118 -79t-137 -27t-138 27t-119 79t-79.5 118.5t-27.5 139.5q0 72 27.5 137.5t78.5 116.5
q69 69 162 93.5t186.5 0t163.5 -94.5q14 -15 28 -32l3 -3h-70q-17 24 -37 44q-38 37 -88 58.5t-104 24.5q-115 4 -192 -73q-49 -48 -73 -118t-20 -149q2 -52 17 -101.5t40 -93t60 -78.5q34 -35 75 -55.5t83 -25.5v483q0 18 -3 31q-11 54 -56 85h121l253 -300l227 379
q-14 19 -33 33h167q-3 -2 -5 -4q-47 -37 -47 -100v-492z" />
    <glyph glyph-name="CN.dlig" unicode="&#xf01c;" horiz-adv-x="925" 
d="M803 726h129q-44 -32 -56 -85q-3 -14 -3 -31v-584h-37l-451 525l-10 15v-547q0 -2 1 -6q103 -4 180 73q21 21 38 48l1 1h66l-2 -3q-12 -14 -24 -26q-52 -52 -118 -79t-137 -27t-138 27t-119 79t-79.5 118.5t-27.5 139.5q0 72 27.5 137.5t78.5 116.5q69 69 162 93.5
t186.5 0t163.5 -94.5q14 -15 28 -32l3 -3h-70q-17 24 -37 44q-38 37 -88 58.5t-104 24.5q-115 4 -192 -73q-49 -48 -73 -118t-20 -149t34.5 -150t82.5 -123q73 -73 166 -82v12v473q0 13 -1 23q-10 58 -58 92h122l435 -508v504q0 9 -1 14q-6 64 -58 102z" />
    </font>
</defs>
</svg>
