<svg width="25" height="25" viewBox="0 0 25 25" fill="none" xmlns="http://www.w3.org/2000/svg">
<circle cx="12.5" cy="12.5" r="10.9375" fill="white"/>
<path fill-rule="evenodd" clip-rule="evenodd" d="M12.0666 4.81871C12.3291 4.64376 12.6709 4.64376 12.9334 4.81871L19.9646 9.50621C20.182 9.65111 20.3125 9.89504 20.3125 10.1562V14.8438C20.3125 15.105 20.182 15.3489 19.9646 15.4938L12.9334 20.1813C12.6709 20.3562 12.3291 20.3562 12.0666 20.1813L5.03539 15.4938C4.81805 15.3489 4.6875 15.105 4.6875 14.8438V10.1562C4.6875 9.89504 4.81805 9.65111 5.03539 9.50621L12.0666 4.81871ZM6.25 11.616L7.57596 12.5L6.25 13.384V11.616ZM6.87717 14.8438L11.7188 18.0715V15.2619L8.98438 13.4389L6.87717 14.8438ZM10.3928 12.5L12.5 13.9048L14.6072 12.5L12.5 11.0952L10.3928 12.5ZM13.2812 9.73814L16.0156 11.5611L18.1228 10.1562L13.2812 6.92853V9.73814ZM11.7188 6.92853V9.73814L8.98438 11.5611L6.87717 10.1562L11.7188 6.92853ZM18.75 11.616L17.424 12.5L18.75 13.384V11.616ZM18.1228 14.8438L16.0156 13.4389L13.2812 15.2619V18.0715L18.1228 14.8438Z" fill="black"/>
</svg>
