<svg width="150" height="25" viewBox="0 0 150 25" fill="none" xmlns="http://www.w3.org/2000/svg">
<g clip-path="url(#clip0_441_1255)">
<path d="M20.7033 11.7184C21.7819 11.7184 22.6562 10.844 22.6562 9.76546C22.6562 8.68687 21.7818 7.8125 20.7032 7.8125C19.6245 7.8125 18.75 8.68694 18.75 9.76563V11.7184H20.7033ZM15.2344 11.7184C16.3131 11.7184 17.1875 10.844 17.1875 9.76529V4.29687C17.1875 3.21819 16.3131 2.34375 15.2344 2.34375C14.1557 2.34375 13.2812 3.21819 13.2812 4.29688V9.76529C13.2812 10.844 14.1557 11.7184 15.2344 11.7184Z" fill="white"/>
<path d="M4.29671 13.2816C3.21812 13.2816 2.34375 14.156 2.34375 15.2345C2.34375 16.3131 3.2182 17.1875 4.29679 17.1875C5.37547 17.1875 6.25 16.3131 6.25 15.2344V13.2816H4.29671ZM9.76562 13.2816C8.68694 13.2816 7.8125 14.156 7.8125 15.2347V20.7031C7.8125 21.7818 8.68694 22.6562 9.76562 22.6562C10.8443 22.6562 11.7188 21.7818 11.7188 20.7031V15.2347C11.7188 14.156 10.8443 13.2816 9.76562 13.2816Z" fill="white"/>
<path d="M13.2816 20.7033C13.2816 21.7819 14.156 22.6562 15.2345 22.6562C16.3131 22.6562 17.1875 21.7818 17.1875 20.7032C17.1875 19.6245 16.3131 18.75 15.2344 18.75L13.2816 18.75L13.2816 20.7033ZM13.2816 15.2344C13.2816 16.3131 14.156 17.1875 15.2347 17.1875L20.7031 17.1875C21.7818 17.1875 22.6562 16.3131 22.6562 15.2344C22.6562 14.1557 21.7818 13.2812 20.7031 13.2812L15.2347 13.2812C14.156 13.2812 13.2816 14.1557 13.2816 15.2344Z" fill="white"/>
<path d="M11.7184 4.29671C11.7184 3.21812 10.844 2.34375 9.76546 2.34375C8.68687 2.34375 7.8125 3.2182 7.8125 4.29679C7.8125 5.37547 8.68695 6.25 9.76563 6.25L11.7184 6.25L11.7184 4.29671ZM11.7184 9.76563C11.7184 8.68694 10.844 7.8125 9.76529 7.8125L4.29688 7.8125C3.21819 7.8125 2.34375 8.68694 2.34375 9.76562C2.34375 10.8443 3.21819 11.7188 4.29688 11.7188L9.76529 11.7188C10.844 11.7188 11.7184 10.8443 11.7184 9.76563Z" fill="white"/>
<path d="M39.7545 15.885L34.1137 14.7063C34.0901 14.7519 34.0638 14.7962 34.035 14.8388L39.1702 22.3297L39.48 22.0202L40.3536 16.5875C40.206 16.5251 40.0749 16.4291 39.9709 16.3071C39.8669 16.1851 39.7928 16.0406 39.7545 15.8849V15.885ZM37.6968 8.51127C37.4854 8.83542 37.1207 9.04996 36.7052 9.04996C36.6413 9.04996 36.5791 9.0435 36.518 9.03379L33.9455 13.0588L40.8184 10.1012C40.8162 10.0735 40.8101 10.0477 40.8101 10.0193C40.8101 9.96142 40.818 9.90535 40.8274 9.85001L37.6968 8.51136V8.51127ZM37.8836 7.7778L41.2137 9.20162C41.3198 9.11867 41.4412 9.05738 41.5709 9.02121L42.1182 5.61799L40.0331 3.53284L37.686 7.20541C37.801 7.37556 37.8692 7.57301 37.8836 7.77789V7.7778ZM44.8613 8.36105L42.7716 6.27096L42.3173 9.09273C42.4325 9.15063 42.5359 9.22934 42.6224 9.32488L44.8613 8.36105ZM39.8544 15.1417C39.9362 14.9933 40.0537 14.8675 40.1963 14.7758C40.3389 14.6842 40.502 14.6295 40.671 14.6167L41.2712 10.8839C41.2241 10.8527 41.1821 10.8153 41.1407 10.7768L34.2283 13.7517C34.2459 13.8239 34.2582 13.8976 34.2639 13.9741L39.8544 15.1417ZM45.4306 8.93065L43.0127 9.97103L48.9784 12.5216L49 12.5L45.4306 8.93065ZM41.1098 16.5987L40.3832 21.1163L44.6026 16.897L41.5634 16.2623C41.4468 16.4149 41.2896 16.5314 41.1098 16.5987ZM32.9084 15.4372C32.7556 15.4372 32.6094 15.411 32.4724 15.3645L31.0709 17.5579L30.5293 17.0166L31.8568 14.9395C31.824 14.8987 31.7934 14.8562 31.7652 14.8122L29.3602 15.8476L28.7902 15.2776L31.4226 14.1445L26.6635 13.1512L26.0126 12.5L26.2185 12.2941L31.7066 13.4398C31.7697 13.32 31.8505 13.2105 31.9463 13.1149L29.2826 9.22965L29.8206 8.69167L32.6035 12.7512C32.7035 12.728 32.8057 12.7161 32.9083 12.7156C33.0258 12.7156 33.1397 12.7322 33.2486 12.7602L35.8527 8.68556C35.6407 8.46564 35.5223 8.17203 35.5224 7.86656C35.5224 7.77313 35.5343 7.68256 35.5548 7.5956L32.306 6.20663L32.8759 5.63667L35.954 6.95304C36.1101 6.8244 36.2966 6.73809 36.4957 6.7024C36.6948 6.66672 36.8997 6.68286 37.0908 6.74928L39.4917 2.99163L37.5002 1L26 12.5L37.5002 24L38.6319 22.8683L33.4582 15.3207C33.285 15.3974 33.0978 15.4371 32.9084 15.4372ZM42.0032 11.0448L41.3927 14.8395C41.4994 14.9252 41.5877 15.0316 41.6525 15.1522C41.7173 15.2727 41.7571 15.4051 41.7696 15.5414L45.2351 16.2648L48.4084 13.0916L42.6807 10.6428C42.5168 10.861 42.2733 11.0055 42.0032 11.0449V11.0448Z" fill="white"/>
<path d="M62.5 1.5625C56.457 1.5625 51.5625 6.45703 51.5625 12.5C51.5625 17.3398 54.6934 21.4277 59.041 22.877C59.5879 22.9727 59.793 22.6445 59.793 22.3574C59.793 22.0977 59.7793 21.2363 59.7793 20.3203C57.0313 20.8262 56.3203 19.6504 56.1016 19.0352C55.9785 18.7207 55.4453 17.75 54.9805 17.4902C54.5977 17.2852 54.0508 16.7793 54.9668 16.7656C55.8281 16.752 56.4434 17.5586 56.6484 17.8867C57.6328 19.541 59.2051 19.0762 59.834 18.7891C59.9297 18.0781 60.2168 17.5996 60.5312 17.3262C58.0977 17.0527 55.5547 16.1094 55.5547 11.9258C55.5547 10.7363 55.9785 9.75195 56.6758 8.98633C56.5664 8.71289 56.1836 7.5918 56.7852 6.08789C56.7852 6.08789 57.7012 5.80078 59.793 7.20898C60.668 6.96289 61.5977 6.83984 62.5273 6.83984C63.457 6.83984 64.3867 6.96289 65.2617 7.20898C67.3535 5.78711 68.2695 6.08789 68.2695 6.08789C68.8711 7.5918 68.4883 8.71289 68.3789 8.98633C69.0762 9.75195 69.5 10.7227 69.5 11.9258C69.5 16.123 66.9434 17.0527 64.5098 17.3262C64.9062 17.668 65.248 18.3242 65.248 19.3496C65.248 20.8125 65.2344 21.9883 65.2344 22.3574C65.2344 22.6445 65.4395 22.9863 65.9863 22.877C68.1576 22.1439 70.0444 20.7485 71.381 18.887C72.7177 17.0255 73.4369 14.7917 73.4375 12.5C73.4375 6.45703 68.543 1.5625 62.5 1.5625Z" fill="white"/>
<circle cx="87.5" cy="12.5" r="10.9375" fill="white"/>
<path fill-rule="evenodd" clip-rule="evenodd" d="M87.0666 4.81871C87.3291 4.64376 87.6709 4.64376 87.9334 4.81871L94.9646 9.50621C95.182 9.65111 95.3125 9.89504 95.3125 10.1562V14.8438C95.3125 15.105 95.182 15.3489 94.9646 15.4938L87.9334 20.1813C87.6709 20.3562 87.3291 20.3562 87.0666 20.1813L80.0354 15.4938C79.818 15.3489 79.6875 15.105 79.6875 14.8438V10.1562C79.6875 9.89504 79.818 9.65111 80.0354 9.50621L87.0666 4.81871ZM81.25 11.616L82.576 12.5L81.25 13.384V11.616ZM81.8772 14.8438L86.7188 18.0715V15.2619L83.9844 13.4389L81.8772 14.8438ZM85.3928 12.5L87.5 13.9048L89.6072 12.5L87.5 11.0952L85.3928 12.5ZM88.2812 9.73814L91.0156 11.5611L93.1228 10.1562L88.2812 6.92853V9.73814ZM86.7188 6.92853V9.73814L83.9844 11.5611L81.8772 10.1562L86.7188 6.92853ZM93.75 11.616L92.424 12.5L93.75 13.384V11.616ZM93.1228 14.8438L91.0156 13.4389L88.2812 15.2619V18.0715L93.1228 14.8438Z" fill="#020305"/>
<path d="M109.947 22.9999C108.284 23.0128 106.793 21.9724 106.231 20.4054C105.669 18.8385 106.157 17.087 107.449 16.0379C106.533 15.2958 106.001 14.1792 106.001 12.9995C106.001 11.8198 106.533 10.7032 107.449 9.96109C106.157 8.91235 105.668 7.16079 106.231 5.59376C106.793 4.02673 108.284 2.98658 109.947 3.00013H116.053C117.716 2.98658 119.207 4.02673 119.769 5.59376C120.332 7.16079 119.843 8.91235 118.551 9.96109C119.843 11.0102 120.331 12.7616 119.769 14.3286C119.207 15.8955 117.716 16.9359 116.053 16.9229C115.284 16.9239 114.532 16.7 113.889 16.2789V19.0789C113.88 21.2498 112.117 23.0036 109.947 22.9999ZM109.925 16.9239C108.742 16.9426 107.796 17.9147 107.808 19.0992C107.821 20.2837 108.787 21.2356 109.97 21.2295C111.154 21.2234 112.111 20.2614 112.111 19.0769V16.9239H109.924H109.925ZM116.054 10.8471C114.867 10.8531 113.909 11.8197 113.913 13.0073C113.917 14.1949 114.882 15.1549 116.068 15.1529C117.255 15.1509 118.216 14.1876 118.216 13C118.212 11.8081 117.244 10.8449 116.053 10.8471H116.054ZM109.948 10.847C109.18 10.843 108.467 11.2495 108.079 11.9136C107.692 12.5777 107.687 13.3983 108.068 14.0665C108.449 14.7347 109.157 15.1489 109.925 15.153H112.111V10.847H109.948ZM113.889 4.77022V9.07714H116.052C117.208 9.08251 118.163 8.17255 118.213 7.01616V7.45115V6.92317C118.208 5.73267 117.242 4.77022 116.053 4.77022H113.889ZM109.946 4.77022C109.178 4.77022 108.468 5.18057 108.083 5.84669C107.699 6.51282 107.699 7.33351 108.083 7.99964C108.468 8.66576 109.178 9.07611 109.946 9.07611H112.111V4.77022H109.946Z" fill="white"/>
<g clip-path="url(#clip1_441_1255)">
<g clip-path="url(#clip2_441_1255)">
<path d="M131.088 5.85711C131.772 6.41261 132.029 6.37044 133.314 6.28427L145.428 5.55736C145.684 5.55736 145.471 5.30069 145.386 5.25852L143.373 3.80377C142.988 3.50494 142.473 3.16211 141.489 3.24736L129.76 4.10352C129.333 4.14569 129.247 4.36019 129.417 4.53069L131.088 5.85711ZM131.815 8.68044V21.4258C131.815 22.1105 132.157 22.3672 132.928 22.3241L146.241 21.5541C147.012 21.5119 147.098 21.0408 147.098 20.4844V7.82427C147.098 7.26877 146.884 6.96902 146.412 7.01119L132.5 7.82427C131.987 7.86736 131.815 8.12402 131.815 8.67952V8.68044ZM144.958 9.36336C145.043 9.74836 144.958 10.1334 144.573 10.1774L143.931 10.3057V19.7144C143.374 20.0141 142.86 20.1855 142.432 20.1855C141.746 20.1855 141.575 19.971 141.062 19.3303L136.866 12.7431V19.1158L138.193 19.4164C138.193 19.4164 138.193 20.1864 137.123 20.1864L134.169 20.3569C134.084 20.1864 134.169 19.7584 134.469 19.6731L135.239 19.4595V11.0326L134.171 10.9464C134.085 10.5614 134.299 10.0059 134.898 9.96286L138.066 9.74927L142.433 16.4217V10.5184L141.319 10.3909C141.234 9.91977 141.576 9.57786 142.004 9.53569L144.958 9.36336ZM128.776 2.94852L140.976 2.05019C142.474 1.92186 142.86 2.00711 143.802 2.69186L147.697 5.42902C148.338 5.89927 148.553 6.02761 148.553 6.54094V21.5541C148.553 22.4946 148.211 23.0519 147.013 23.1363L132.843 23.9924C131.945 24.0355 131.516 23.9072 131.044 23.3077L128.176 19.586C127.663 18.9013 127.449 18.3889 127.449 17.7894V4.44452C127.449 3.67544 127.792 3.03286 128.776 2.94852V2.94852Z" fill="white"/>
</g>
</g>
</g>
<defs>
<clipPath id="clip0_441_1255">
<rect width="150" height="25" fill="white"/>
</clipPath>
<clipPath id="clip1_441_1255">
<rect width="22" height="22" fill="white" transform="translate(127 2)"/>
</clipPath>
<clipPath id="clip2_441_1255">
<rect width="22" height="22" fill="white" transform="translate(127 2)"/>
</clipPath>
</defs>
</svg>
