<svg width="25" height="25" viewBox="0 0 25 25" fill="none" xmlns="http://www.w3.org/2000/svg">
<path d="M9.94736 22.9999C8.28373 23.0128 6.7935 21.9724 6.23124 20.4054C5.66898 18.8385 6.15744 17.087 7.44929 16.0379C6.533 15.2958 6.00064 14.1792 6.00064 12.9995C6.00064 11.8198 6.533 10.7032 7.44929 9.96109C6.15702 8.91235 5.66827 7.16079 6.23064 5.59376C6.793 4.02673 8.28364 2.98658 9.94736 3.00013H16.0526C17.7164 2.98658 19.207 4.02673 19.7694 5.59376C20.3317 7.16079 19.843 8.91235 18.5507 9.96109C19.8426 11.0102 20.331 12.7616 19.7688 14.3286C19.2065 15.8955 17.7163 16.9359 16.0526 16.9229C15.2842 16.9239 14.5323 16.7 13.8893 16.2789V19.0789C13.88 21.2498 12.1167 23.0036 9.94736 22.9999ZM9.92538 16.9239C8.74183 16.9426 7.79572 17.9147 7.80813 19.0992C7.82054 20.2837 8.78682 21.2356 9.9705 21.2295C11.1542 21.2234 12.1105 20.2614 12.1107 19.0769V16.9239H9.92438H9.92538ZM16.0536 10.8471C14.8669 10.8531 13.9093 11.8197 13.9133 13.0073C13.9173 14.1949 14.8816 15.1549 16.0683 15.1529C17.255 15.1509 18.216 14.1876 18.216 13C18.2116 11.8081 17.2437 10.8449 16.0526 10.8471H16.0536ZM9.94836 10.847C9.17976 10.843 8.46735 11.2495 8.0795 11.9136C7.69165 12.5777 7.68726 13.3983 8.06801 14.0665C8.44875 14.7347 9.15678 15.1489 9.92538 15.153H12.1107V10.847H9.94836ZM13.8893 4.77022V9.07714H16.0516C17.2083 9.08251 18.1625 8.17255 18.213 7.01616V7.45115V6.92317C18.208 5.73267 17.2423 4.77022 16.0526 4.77022H13.8893ZM9.94636 4.77022C9.17776 4.77022 8.46755 5.18057 8.08325 5.84669C7.69895 6.51282 7.69895 7.33351 8.08325 7.99964C8.46755 8.66576 9.17776 9.07611 9.94636 9.07611H12.1107V4.77022H9.94636Z" fill="white"/>
</svg>
