<svg width="25" height="25" viewBox="0 0 25 25" fill="none" xmlns="http://www.w3.org/2000/svg">
<path d="M12.5 1.5625C6.45703 1.5625 1.5625 6.45703 1.5625 12.5C1.5625 17.3398 4.69336 21.4277 9.04102 22.877C9.58789 22.9727 9.79297 22.6445 9.79297 22.3574C9.79297 22.0977 9.7793 21.2363 9.7793 20.3203C7.03125 20.8262 6.32031 19.6504 6.10156 19.0352C5.97852 18.7207 5.44531 17.75 4.98047 17.4902C4.59766 17.2852 4.05078 16.7793 4.9668 16.7656C5.82812 16.752 6.44336 17.5586 6.64844 17.8867C7.63281 19.541 9.20508 19.0762 9.83398 18.7891C9.92969 18.0781 10.2168 17.5996 10.5312 17.3262C8.09766 17.0527 5.55469 16.1094 5.55469 11.9258C5.55469 10.7363 5.97852 9.75195 6.67578 8.98633C6.56641 8.71289 6.18359 7.5918 6.78516 6.08789C6.78516 6.08789 7.70117 5.80078 9.79297 7.20898C10.668 6.96289 11.5977 6.83984 12.5273 6.83984C13.457 6.83984 14.3867 6.96289 15.2617 7.20898C17.3535 5.78711 18.2695 6.08789 18.2695 6.08789C18.8711 7.5918 18.4883 8.71289 18.3789 8.98633C19.0762 9.75195 19.5 10.7227 19.5 11.9258C19.5 16.123 16.9434 17.0527 14.5098 17.3262C14.9062 17.668 15.248 18.3242 15.248 19.3496C15.248 20.8125 15.2344 21.9883 15.2344 22.3574C15.2344 22.6445 15.4395 22.9863 15.9863 22.877C18.1576 22.1439 20.0444 20.7485 21.381 18.887C22.7177 17.0255 23.4369 14.7917 23.4375 12.5C23.4375 6.45703 18.543 1.5625 12.5 1.5625Z" fill="white"/>
</svg>
