<svg width="25" height="25" viewBox="0 0 25 25" fill="none" xmlns="http://www.w3.org/2000/svg">
<path d="M14.7545 15.885L9.1137 14.7063C9.09008 14.7519 9.0638 14.7962 9.035 14.8388L14.1702 22.3297L14.48 22.0202L15.3536 16.5875C15.206 16.5251 15.0749 16.4291 14.9709 16.3071C14.8669 16.1851 14.7928 16.0406 14.7545 15.8849V15.885ZM12.6968 8.51127C12.4854 8.83542 12.1207 9.04996 11.7052 9.04996C11.6413 9.04996 11.5791 9.0435 11.518 9.03379L8.94551 13.0588L15.8184 10.1012C15.8162 10.0735 15.8101 10.0477 15.8101 10.0193C15.8101 9.96142 15.818 9.90535 15.8274 9.85001L12.6968 8.51136V8.51127ZM12.8836 7.7778L16.2137 9.20162C16.3198 9.11867 16.4412 9.05738 16.5709 9.02121L17.1182 5.61799L15.0331 3.53284L12.686 7.20541C12.801 7.37556 12.8692 7.57301 12.8836 7.77789V7.7778ZM19.8613 8.36105L17.7716 6.27096L17.3173 9.09273C17.4325 9.15063 17.5359 9.22934 17.6224 9.32488L19.8613 8.36105ZM14.8544 15.1417C14.9362 14.9933 15.0537 14.8675 15.1963 14.7758C15.3389 14.6842 15.502 14.6295 15.671 14.6167L16.2712 10.8839C16.2241 10.8527 16.1821 10.8153 16.1407 10.7768L9.22834 13.7517C9.24595 13.8239 9.25817 13.8976 9.26392 13.9741L14.8544 15.1417ZM20.4306 8.93065L18.0127 9.97103L23.9784 12.5216L24 12.5L20.4306 8.93065ZM16.1098 16.5987L15.3832 21.1163L19.6026 16.897L16.5634 16.2623C16.4468 16.4149 16.2896 16.5314 16.1098 16.5987ZM7.90836 15.4372C7.75562 15.4372 7.60936 15.411 7.47243 15.3645L6.07087 17.5579L5.52929 17.0166L6.85682 14.9395C6.82399 14.8987 6.7934 14.8562 6.76518 14.8122L4.36025 15.8476L3.79019 15.2776L6.42261 14.1445L1.6635 13.1512L1.01258 12.5L1.2185 12.2941L6.70661 13.4398C6.76972 13.32 6.85053 13.2105 6.94631 13.1149L4.28262 9.22965L4.82061 8.69167L7.60352 12.7512C7.70345 12.728 7.80567 12.7161 7.90827 12.7156C8.02578 12.7156 8.1397 12.7322 8.24859 12.7602L10.8527 8.68556C10.6407 8.46564 10.5223 8.17203 10.5224 7.86656C10.5224 7.77313 10.5343 7.68256 10.5548 7.5956L7.30604 6.20663L7.87592 5.63667L10.954 6.95304C11.1101 6.8244 11.2966 6.73809 11.4957 6.7024C11.6948 6.66672 11.8997 6.68286 12.0908 6.74928L14.4917 2.99163L12.5002 1L1 12.5L12.5002 24L13.6319 22.8683L8.4582 15.3207C8.28505 15.3974 8.09776 15.4371 7.90836 15.4372ZM17.0032 11.0448L16.3927 14.8395C16.4994 14.9252 16.5877 15.0316 16.6525 15.1522C16.7173 15.2727 16.7571 15.4051 16.7696 15.5414L20.2351 16.2648L23.4084 13.0916L17.6807 10.6428C17.5168 10.861 17.2733 11.0055 17.0032 11.0449V11.0448Z" fill="white"/>
</svg>
