<svg width="25" height="25" viewBox="0 0 25 25" fill="none" xmlns="http://www.w3.org/2000/svg">
<g clip-path="url(#clip0_626_1324)">
<g clip-path="url(#clip1_626_1324)">
<path d="M6.08839 5.85735C6.77222 6.41285 7.02889 6.37068 8.31405 6.28452L20.4278 5.5576C20.6845 5.5576 20.4709 5.30093 20.3856 5.25877L18.3726 3.80402C17.9876 3.50518 17.4734 3.16235 16.4889 3.2476L4.76014 4.10377C4.33297 4.14593 4.2468 4.36043 4.4173 4.53093L6.08839 5.85735ZM6.8153 8.68068V21.426C6.8153 22.1108 7.15722 22.3674 7.92814 22.3244L21.2409 21.5544C22.0118 21.5122 22.098 21.041 22.098 20.4846V7.82452C22.098 7.26902 21.8844 6.96927 21.4123 7.01143L7.50005 7.82452C6.98672 7.8676 6.8153 8.12427 6.8153 8.67977V8.68068ZM19.9576 9.3636C20.0428 9.7486 19.9576 10.1336 19.5726 10.1776L18.9309 10.3059V19.7146C18.3736 20.0144 17.8602 20.1858 17.4321 20.1858C16.7465 20.1858 16.5751 19.9713 16.0617 19.3305L11.8661 12.7434V19.116L13.1935 19.4167C13.1935 19.4167 13.1935 20.1867 12.1228 20.1867L9.1693 20.3572C9.08405 20.1867 9.1693 19.7586 9.46905 19.6734L10.2391 19.4598V11.0329L9.17114 10.9467C9.08497 10.5617 9.29947 10.0062 9.89805 9.9631L13.0661 9.74952L17.4331 16.4219V10.5186L16.3193 10.3912C16.2341 9.92002 16.576 9.5781 17.0041 9.53593L19.9576 9.3636ZM3.77564 2.94877L15.9765 2.05043C17.4743 1.9221 17.8602 2.00735 18.8016 2.6921L22.6966 5.42927C23.3382 5.89952 23.5527 6.02785 23.5527 6.54118V21.5544C23.5527 22.4949 23.2108 23.0522 22.0127 23.1365L7.84289 23.9927C6.94455 24.0358 6.51555 23.9074 6.04438 23.3079L3.17614 19.5863C2.6628 18.9015 2.44922 18.3891 2.44922 17.7896V4.44477C2.44922 3.67568 2.79205 3.0331 3.77564 2.94877V2.94877Z" fill="white"/>
</g>
</g>
<defs>
<clipPath id="clip0_626_1324">
<rect width="22" height="22" fill="white" transform="translate(2 2)"/>
</clipPath>
<clipPath id="clip1_626_1324">
<rect width="22" height="22" fill="white" transform="translate(2 2)"/>
</clipPath>
</defs>
</svg>
