<svg width="25" height="25" viewBox="0 0 25 25" fill="none" xmlns="http://www.w3.org/2000/svg">
<path d="M20.7033 11.7184C21.7819 11.7184 22.6562 10.844 22.6562 9.76546C22.6562 8.68687 21.7818 7.8125 20.7032 7.8125C19.6245 7.8125 18.75 8.68694 18.75 9.76563V11.7184H20.7033ZM15.2344 11.7184C16.3131 11.7184 17.1875 10.844 17.1875 9.76529V4.29687C17.1875 3.21819 16.3131 2.34375 15.2344 2.34375C14.1557 2.34375 13.2812 3.21819 13.2812 4.29688V9.76529C13.2812 10.844 14.1557 11.7184 15.2344 11.7184Z" fill="white"/>
<path d="M4.29671 13.2816C3.21812 13.2816 2.34375 14.156 2.34375 15.2345C2.34375 16.3131 3.2182 17.1875 4.29679 17.1875C5.37547 17.1875 6.25 16.3131 6.25 15.2344V13.2816H4.29671ZM9.76562 13.2816C8.68694 13.2816 7.8125 14.156 7.8125 15.2347V20.7031C7.8125 21.7818 8.68694 22.6562 9.76562 22.6562C10.8443 22.6562 11.7188 21.7818 11.7188 20.7031V15.2347C11.7188 14.156 10.8443 13.2816 9.76562 13.2816Z" fill="white"/>
<path d="M13.2816 20.7033C13.2816 21.7819 14.156 22.6562 15.2345 22.6562C16.3131 22.6562 17.1875 21.7818 17.1875 20.7032C17.1875 19.6245 16.3131 18.75 15.2344 18.75L13.2816 18.75L13.2816 20.7033ZM13.2816 15.2344C13.2816 16.3131 14.156 17.1875 15.2347 17.1875L20.7031 17.1875C21.7818 17.1875 22.6562 16.3131 22.6562 15.2344C22.6562 14.1557 21.7818 13.2812 20.7031 13.2812L15.2347 13.2812C14.156 13.2812 13.2816 14.1557 13.2816 15.2344Z" fill="white"/>
<path d="M11.7184 4.29671C11.7184 3.21812 10.844 2.34375 9.76546 2.34375C8.68687 2.34375 7.8125 3.2182 7.8125 4.29679C7.8125 5.37547 8.68695 6.25 9.76563 6.25L11.7184 6.25L11.7184 4.29671ZM11.7184 9.76563C11.7184 8.68694 10.844 7.8125 9.76529 7.8125L4.29688 7.8125C3.21819 7.8125 2.34375 8.68694 2.34375 9.76562C2.34375 10.8443 3.21819 11.7188 4.29688 11.7188L9.76529 11.7188C10.844 11.7188 11.7184 10.8443 11.7184 9.76563Z" fill="white"/>
</svg>
